<?xml version="1.0" standalone="no"?>
<!DOCTYPE svg PUBLIC "-//W3C//DTD SVG 1.1//EN" "http://www.w3.org/Graphics/SVG/1.1/DTD/svg11.dtd" >
<svg xmlns="http://www.w3.org/2000/svg">
<metadata></metadata>
<defs>
<font id="pragmatica_boldregular" horiz-adv-x="1331" >
<font-face units-per-em="2048" ascent="1638" descent="-410" />
<missing-glyph horiz-adv-x="477" />
<glyph horiz-adv-x="0" />
<glyph unicode="&#xd;" horiz-adv-x="477" />
<glyph unicode=" "  horiz-adv-x="477" />
<glyph unicode="&#x09;" horiz-adv-x="477" />
<glyph unicode="&#xa0;" horiz-adv-x="477" />
<glyph unicode="!" horiz-adv-x="798" d="M217 1059v375h352v-375l-88 -598h-176zM223 0v324h340v-324h-340z" />
<glyph unicode="&#x22;" horiz-adv-x="1026" d="M117 1434h352l-109 -394h-135zM551 1434h352l-108 -394h-136z" />
<glyph unicode="#" d="M31 338l37 229h274l49 314h-274l35 229h274l49 313h164l-49 -313h272l49 313h164l-49 -313h274l-34 -229h-275l-49 -314h275l-37 -229h-275l-47 -318h-164l47 318h-272l-47 -318h-164l47 318h-274zM506 567h272l49 314h-272z" />
<glyph unicode="$" d="M72 461h305q18 -121 70 -182.5t153 -67.5v397q-118 26 -201.5 59.5t-149.5 85t-99 127t-33 175.5q0 78 18.5 142t49 107.5t73 76t86 50.5t92 29t87.5 13.5t77 1.5v118h156v-118q84 -1 153.5 -18t116 -44t82 -64.5t55 -75.5t32 -82.5t16 -79.5t3.5 -73h-305q5 72 -33 126 t-120 65v-355q269 -64 378 -173t109 -293q0 -81 -20.5 -148t-52 -111.5t-77 -79.5t-88 -54t-93.5 -32t-85.5 -17.5t-70.5 -6.5v-154h-156v154q-261 4 -384 127t-144 375zM430 1065q0 -41 16 -72.5t42.5 -49t54 -27t57.5 -11.5v324q-85 -4 -127.5 -46.5t-42.5 -117.5z M756 211q76 4 125 65.5t49 137.5q0 140 -174 170v-373z" />
<glyph unicode="%" horiz-adv-x="1959" d="M109 1051q0 100 28 177t68.5 119.5t95 69.5t97.5 35t85 8q41 0 84.5 -8.5t98 -35.5t96 -70t70 -119.5t28.5 -175.5q0 -92 -25 -165.5t-64 -118t-90.5 -74t-100 -41t-97.5 -11.5q-42 0 -86.5 9t-98 36.5t-94 70.5t-68 119t-27.5 175zM324 1051q0 -124 48 -186t111 -62 t111.5 62t48.5 186q0 69 -15.5 120t-41 77t-51.5 38t-52 12q-20 0 -40.5 -6.5t-42.5 -24.5t-38.5 -44.5t-27 -71t-10.5 -100.5zM414 0l913 1434h211l-913 -1434h-211zM1092 383q0 50 9.5 101t36 108t67 100.5t108.5 72t155 28.5q73 0 133 -19.5t100 -53.5t69 -75.5t45 -89 t23 -89.5t7 -83q0 -100 -28.5 -177t-70.5 -120t-96.5 -69.5t-97.5 -35t-84 -8.5t-84 8.5t-97.5 35t-96 69.5t-70 120t-28.5 177zM1309 383q0 -119 46 -183.5t113 -64.5q26 0 52 12t51.5 38t41 77.5t15.5 120.5q0 21 -2.5 45.5t-12 62.5t-25.5 67.5t-47 51t-73 21.5 q-63 0 -111 -62t-48 -186z" />
<glyph unicode="&#x26;" horiz-adv-x="1435" d="M82 395q0 83 19 145.5t64 114t100 90.5t145 89q-70 76 -94.5 140t-24.5 140q0 162 112 261.5t283 99.5q156 0 260.5 -94.5t104.5 -268.5q0 -231 -246 -350l201 -238q31 55 49 138h272q-26 -164 -156 -343l265 -319h-361l-104 129q-84 -91 -198 -130.5t-234 -39.5 q-97 0 -176 27.5t-130.5 71.5t-86 102t-49.5 116.5t-15 118.5zM399 416q0 -20 4.5 -42.5t19 -51t36.5 -51t61 -37.5t88 -15q62 0 123 23.5t94 68.5l-260 324q-166 -67 -166 -219zM555 1124q0 -34 16 -68t33 -55.5t55 -64.5q160 69 160 190q0 70 -42.5 99.5t-90.5 29.5 q-27 0 -54 -9.5t-52 -41t-25 -80.5z" />
<glyph unicode="'" horiz-adv-x="591" d="M117 1434h352l-109 -394h-135z" />
<glyph unicode="(" horiz-adv-x="815" d="M162 528q0 102 15.5 200t37.5 174.5t67 176t81 168t102 187.5h235q-108 -261 -168.5 -477.5t-60.5 -428.5q0 -215 60.5 -431.5t168.5 -475.5h-235q-66 117 -103 187t-81 168t-66 175.5t-37.5 175t-15.5 201.5z" />
<glyph unicode=")" horiz-adv-x="819" d="M109 -379q112 263 169.5 480t57.5 427q0 380 -227 906h233q173 -270 239 -489.5t66 -416.5q0 -198 -66 -417t-239 -490h-233z" />
<glyph unicode="*" horiz-adv-x="993" d="M143 1169l50 146l225 -76v236h151v-236l224 76l49 -146l-221 -75l141 -189l-125 -96l-143 197l-146 -197l-123 96l140 189z" />
<glyph unicode="+" horiz-adv-x="1382" d="M109 635v164h497v497h164v-497h498v-164h-498v-498h-164v498h-497z" />
<glyph unicode="," horiz-adv-x="784" d="M217 0v324h338v-324q0 -26 -1.5 -49t-9 -61.5t-20.5 -69.5t-38.5 -65.5t-60 -58.5t-88 -40.5t-120.5 -17.5v161q21 0 42.5 4.5t46.5 18t43.5 33.5t31 54.5t12.5 78.5v12h-176z" />
<glyph unicode="-" horiz-adv-x="925" d="M162 420v256h592v-256h-592z" />
<glyph unicode="." horiz-adv-x="784" d="M217 0v324h338v-324h-338z" />
<glyph unicode="/" horiz-adv-x="915" d="M0 -379l752 1813h163l-751 -1813h-164z" />
<glyph unicode="0" d="M84 717q0 152 27.5 275t68.5 200.5t100.5 134.5t111 84t114 43t94 18.5t66.5 2.5q25 0 47.5 -1.5t67 -9t82.5 -20.5t87.5 -40.5t89 -64.5t79.5 -95.5t67 -131t44 -174t17 -221.5t-17 -221.5t-44 -174t-67 -131t-79.5 -95.5t-89 -64.5t-87.5 -40.5t-82.5 -20.5t-67 -9 t-47.5 -1.5q-35 0 -66.5 2.5t-94 18.5t-114 43t-111 84t-100.5 134.5t-68.5 200.5t-27.5 275zM408 717q0 -61 3 -110.5t11.5 -112t26.5 -110t45 -89t71 -64t101 -22.5q50 0 90.5 17.5t67 45t45.5 71t29.5 84.5t16.5 96.5t7.5 97.5t1.5 96t-1.5 96t-7.5 97.5t-16.5 96.5 t-29.5 84.5t-45.5 71t-67 45t-90.5 17.5q-57 0 -101 -22.5t-71 -64t-45 -89t-26.5 -110t-11.5 -112t-3 -110.5z" />
<glyph unicode="1" d="M238 1008v170h43q74 0 153.5 27t145.5 87.5t79 141.5h254v-1434h-338v1008h-337z" />
<glyph unicode="2" d="M111 938v43q0 67 14.5 131t54.5 131.5t101.5 117.5t164.5 82t234 32q25 0 51.5 -1.5t83.5 -10.5t105.5 -25t105.5 -50t97 -80t67 -119.5t27 -164.5q0 -73 -16.5 -133.5t-58.5 -125.5t-120.5 -130.5t-196.5 -132.5q-73 -42 -107 -62t-80 -53t-74 -65t-50 -72h700v-250 h-1097v57q0 75 14 132t53 120.5t111 128.5t184 142q49 34 122.5 82.5t107 71.5t78 59.5t63.5 64t33 67t14 85.5q0 109 -64.5 162t-164.5 53q-111 0 -177.5 -64t-66.5 -172v-51h-313z" />
<glyph unicode="3" d="M78 494h317q0 -40 7 -77.5t26 -76.5t47.5 -67t76 -46t107.5 -18q65 0 113 18.5t72.5 43.5t39.5 58.5t18 55.5t3 43q0 28 -5 53t-20 52.5t-38.5 47t-65 32t-96.5 12.5h-143v235h108q232 0 232 180q0 31 -10.5 60.5t-34.5 59t-72 47.5t-113 18q-48 0 -85 -10t-72 -37 t-54.5 -81.5t-19.5 -135.5h-301q0 48 5.5 93t21 98t41 97.5t68 87.5t98.5 72.5t136.5 47.5t178.5 18q121 0 214.5 -26.5t148.5 -67.5t90.5 -97t48 -108t12.5 -107q0 -64 -18.5 -117t-45.5 -85.5t-64.5 -57.5t-66.5 -37t-61 -20v-7q59 -6 110 -28t96 -61.5t71 -106t26 -152.5 q0 -84 -25 -152.5t-64 -113t-93 -78t-104.5 -51t-107 -28t-92 -13t-67.5 -2.5q-420 0 -545 272q-51 111 -49 263z" />
<glyph unicode="4" d="M68 322v258l675 854h340v-863h174v-249h-174v-322h-338v322h-677zM324 571h421v541z" />
<glyph unicode="5" d="M102 416h320q4 -37 18 -71.5t40 -67.5t73 -52.5t109 -19.5q48 0 86.5 13t63 32.5t43 48t28 54.5t15 57t6.5 50.5t1 39.5q0 129 -70.5 198.5t-166.5 69.5q-63 0 -126 -23.5t-96 -78.5h-317l92 768h916v-250h-697l-41 -312q134 103 344 103q223 0 352.5 -131.5 t129.5 -347.5q0 -83 -19.5 -159.5t-64 -146t-109.5 -120.5t-162.5 -81t-216.5 -30q-92 0 -169 16.5t-132 44t-98 65.5t-70 78.5t-45.5 87t-26.5 86t-10 79.5z" />
<glyph unicode="6" d="M96 709q0 35 1 66.5t7.5 90t17 109t32.5 115t51.5 116t76 103.5t104 87t138.5 57t176 22q107 0 192.5 -25t139.5 -62.5t93.5 -90.5t58.5 -100.5t30 -100.5h-290q-14 40 -43.5 68t-67.5 40t-68 16.5t-61 4.5q-74 0 -128 -28t-84.5 -80t-46 -115t-19.5 -144 q124 127 317 127q74 0 144.5 -16.5t137 -54t116.5 -93t80 -139.5t30 -186q0 -73 -14 -142t-52 -142.5t-96 -128t-155.5 -89.5t-221.5 -35q-34 0 -60.5 1t-75 8.5t-86.5 21t-88 40t-87.5 63t-76.5 94.5t-64.5 130t-41.5 172.5t-16 219.5zM406 494q0 -119 71.5 -202t196.5 -83 q124 0 192 79.5t68 198.5q0 127 -73.5 202t-190.5 75q-50 0 -96 -16t-84 -47.5t-61 -85t-23 -121.5z" />
<glyph unicode="7" d="M70 1184v250h1185v-238q-265 -247 -413 -567q-62 -143 -104 -316.5t-38 -312.5h-352q10 148 50.5 299.5t97.5 275.5q161 336 426 590v19h-852z" />
<glyph unicode="8" d="M82 410q0 256 256 354q-95 33 -152 114.5t-57 192.5q0 45 11 89t34 91t65 86t99 70.5t141 49.5t185 18q132 0 235.5 -31.5t168 -87t97.5 -128t33 -157.5q0 -111 -56.5 -191t-154.5 -116q258 -99 258 -354q0 -33 -3.5 -65t-17.5 -79t-37.5 -86.5t-68 -82t-103.5 -71.5 t-149.5 -48t-201.5 -19t-202 19t-150.5 48t-103.5 71t-67.5 81.5t-37.5 87t-17.5 79.5t-3.5 65zM393 436q0 -40 13 -77.5t42 -72.5t84.5 -56t131.5 -21t131.5 21t84 56t41.5 72t13 78q0 27 -4.5 53t-21.5 59.5t-45 58t-79.5 42t-119.5 17.5t-120 -17.5t-79.5 -42.5 t-44.5 -58.5t-22 -59.5t-5 -52zM426 1051q0 -58 23 -99t61 -60.5t75.5 -27.5t78.5 -8q64 0 111.5 17t74 46t39 62t12.5 70q0 81 -65.5 127.5t-171.5 46.5q-102 0 -170 -42.5t-68 -131.5z" />
<glyph unicode="9" d="M96 934q0 73 14.5 142.5t53 143.5t98.5 129t159.5 90.5t227.5 35.5q43 0 77.5 -2.5t98.5 -17.5t113.5 -41t107 -80.5t95.5 -128.5t64 -191.5t26 -263.5q0 -35 -1.5 -68.5t-8 -93t-17 -112.5t-32.5 -118.5t-51.5 -119.5t-76 -107.5t-103.5 -90t-136.5 -59t-173.5 -22.5 q-75 0 -139.5 13t-112.5 35t-88 53.5t-66.5 64t-47.5 71t-32.5 72t-19.5 68.5h293q16 -63 79.5 -95t147.5 -32q256 0 277 364q-129 -129 -318 -129q-222 0 -365 137t-143 353zM393 942q0 -127 73.5 -201.5t188.5 -74.5q71 0 124.5 24t83.5 64.5t44.5 87t14.5 96.5 q0 25 -4.5 55.5t-22 73.5t-44.5 76.5t-79 57.5t-119 24t-119 -25.5t-82 -67.5t-44.5 -90t-14.5 -100z" />
<glyph unicode=":" horiz-adv-x="784" d="M217 0v324h338v-324h-338zM217 717v323h338v-323h-338z" />
<glyph unicode=";" horiz-adv-x="784" d="M217 0v324h338v-324q0 -26 -1.5 -49t-9 -61.5t-20.5 -69.5t-38.5 -65.5t-60 -58.5t-88 -40.5t-120.5 -17.5v161q21 0 42.5 4.5t46.5 18t43.5 33.5t31 54.5t12.5 78.5v12h-176zM217 717v323h338v-323h-338z" />
<glyph unicode="&#x3c;" horiz-adv-x="1327" d="M84 645v172l1036 600l84 -143l-944 -543l944 -543l-84 -143z" />
<glyph unicode="=" horiz-adv-x="1382" d="M109 430v164h1159v-164h-1159zM109 840v164h1159v-164h-1159z" />
<glyph unicode="&#x3e;" horiz-adv-x="1327" d="M123 188l944 543l-944 543l84 143l1036 -600v-172l-1036 -600z" />
<glyph unicode="?" horiz-adv-x="1196" d="M82 977q-2 88 15 160t46.5 121t73.5 86t89 58.5t100 34.5t100.5 17t95.5 4q235 0 371.5 -95.5t136.5 -281.5q0 -59 -16 -110.5t-36 -85.5t-56.5 -69.5t-59.5 -52.5t-63 -44q-29 -19 -41 -26.5t-36 -25.5t-34.5 -30t-26.5 -32.5t-22 -40t-10 -46.5t-2 -57h-258v55 q0 110 37 176.5t100 118.5q13 10 49.5 35.5t56.5 42.5t46 44.5t38 60.5t12 71q0 74 -49.5 116t-140.5 42q-20 0 -38.5 -2t-53 -15.5t-58 -37t-40 -73.5t-11.5 -118h-315zM408 0v324h340v-324h-340z" />
<glyph unicode="@" horiz-adv-x="1714" d="M96 717q0 220 100.5 394t273 269t384.5 95q160 0 298 -48.5t240.5 -139t161 -229t58.5 -308.5q0 -84 -25 -165t-71.5 -147t-121 -106.5t-163.5 -40.5q-132 0 -174 82q-63 -94 -246 -94q-98 0 -171 35t-114 95t-60.5 130.5t-19.5 150.5q0 173 97.5 293.5t255.5 120.5 q139 0 209 -70l2 41h202v-520q0 -58 10.5 -75t41.5 -17q46 0 82 25t56.5 67.5t31 91.5t10.5 103q0 117 -34 213.5t-91.5 161.5t-134 109.5t-159.5 64.5t-171 20q-134 0 -247 -49.5t-187 -133.5t-115 -192t-41 -227q0 -174 73 -310.5t208 -214t309 -77.5q180 0 320 98 l77 -143q-94 -60 -184.5 -85.5t-212.5 -25.5q-185 0 -332 61.5t-238.5 167t-139.5 240.5t-48 289zM657 690q0 -25 3 -51t13.5 -62t28.5 -62t51.5 -45t77.5 -19q9 0 21.5 1.5t42 14.5t51.5 35.5t40 71.5t18 116q0 126 -47 183t-123 57q-78 0 -127.5 -60.5t-49.5 -179.5z" />
<glyph unicode="A" horiz-adv-x="1378" d="M-18 0l536 1434h342l539 -1434h-359l-92 268h-520l-90 -268h-356zM502 512h372l-184 547z" />
<glyph unicode="B" horiz-adv-x="1488" d="M154 0v1434h718q108 0 189.5 -23.5t128.5 -59.5t76.5 -86.5t39 -97t9.5 -98.5q0 -219 -236 -299v-2q38 -8 74.5 -21.5t80 -42.5t75.5 -67t53.5 -99.5t21.5 -136.5q0 -72 -17.5 -130.5t-46.5 -99.5t-72 -72t-89.5 -49.5t-103.5 -30t-108.5 -15.5t-110.5 -4h-682zM492 279 h350q20 0 42 4t48.5 15t47 28.5t34.5 47t14 66.5q0 40 -12.5 69.5t-32.5 47.5t-50.5 28.5t-62 14.5t-71.5 4h-307v-325zM492 868h311q48 0 83.5 15t52.5 39t24.5 47t7.5 47q0 25 -8 47t-27 44t-57 35t-91 13h-296v-287z" />
<glyph unicode="C" horiz-adv-x="1497" d="M86 690q0 122 19.5 226t51 178.5t78 135t93 99t104 67.5t103.5 43.5t98 23t82 10.5t61 2q146 0 261.5 -35.5t184.5 -89.5t115 -127.5t64.5 -140t21.5 -136.5h-331q-34 250 -299 250q-23 0 -43.5 -2t-57 -12.5t-66.5 -29t-64 -55.5t-57 -87.5t-38.5 -130t-15.5 -177.5 q0 -208 92.5 -336t259.5 -128q64 0 115 18t82.5 45.5t54.5 65t33.5 70.5t15.5 69h336q-5 -50 -16.5 -98t-34.5 -104t-55 -104t-83.5 -93.5t-115 -77t-153 -51t-194.5 -19.5q-115 0 -214.5 21.5t-191 74t-155.5 134t-102.5 209.5t-38.5 292z" />
<glyph unicode="D" horiz-adv-x="1558" d="M154 0v1434h616q32 0 60.5 -1.5t82 -8.5t99.5 -20t104.5 -38.5t105 -60.5t94 -90.5t79 -123.5t51.5 -163.5t20 -208.5q0 -140 -29 -253t-74 -186.5t-111.5 -128t-128.5 -82.5t-139.5 -44.5t-130.5 -20.5t-114 -4h-585zM492 279h215q199 0 297 106.5t98 327.5 q0 442 -375 442h-235v-876z" />
<glyph unicode="E" horiz-adv-x="1355" d="M154 0v1434h1132v-279h-794v-291h700v-264h-700v-321h815v-279h-1153z" />
<glyph unicode="F" horiz-adv-x="1222" d="M154 0v1434h1040v-279h-702v-328h593v-278h-593v-549h-338z" />
<glyph unicode="G" horiz-adv-x="1615" d="M86 721q0 68 8 134t30 142.5t57 143t94.5 129t136 107t187 71.5t243.5 27q149 0 266.5 -44t190 -118.5t114 -160.5t57.5 -183h-354q-2 24 -7.5 46.5t-24 57.5t-46 60t-79.5 44t-119 19q-63 0 -116.5 -14.5t-91 -36.5t-68 -57t-49 -66.5t-31.5 -75t-19.5 -72.5t-9.5 -69 t-3.5 -55t-0.5 -39q0 -28 1 -54t9 -77t21.5 -92t42 -90t67 -82t100 -55.5t137.5 -22.5q57 0 111.5 16.5t102 49t79 88t37.5 126.5h-287v260h611v-778h-252v154h-4q-70 -106 -174 -150.5t-260 -44.5q-128 0 -234 28.5t-178 74.5t-126.5 112t-86 132.5t-51 145t-25.5 141 t-6 128.5z" />
<glyph unicode="H" horiz-adv-x="1511" d="M154 0v1434h338v-539h520v539h338v-1434h-338v616h-520v-616h-338z" />
<glyph unicode="I" horiz-adv-x="653" d="M154 0v1434h338v-1434h-338z" />
<glyph unicode="J" horiz-adv-x="1204" d="M53 438v90h338v-57q0 -120 39.5 -176.5t134.5 -56.5q93 0 125.5 56.5t32.5 176.5v963h338v-916q0 -103 -15.5 -186t-42 -140.5t-65.5 -100t-80 -67.5t-93 -40t-98 -20t-100 -5q-127 0 -223.5 34.5t-150 84.5t-87 118.5t-43.5 125.5t-10 116z" />
<glyph unicode="K" horiz-adv-x="1484" d="M154 0v1434h338v-584l548 584h422l-575 -594l618 -840h-422l-430 618l-161 -163v-455h-338z" />
<glyph unicode="L" horiz-adv-x="1187" d="M154 0v1434h338v-1155h667v-279h-1005z" />
<glyph unicode="M" horiz-adv-x="1949" d="M154 0v1434h475l342 -985l342 985h475v-1434h-338v1024h-6l-359 -1024h-229l-358 1024h-6v-1024h-338z" />
<glyph unicode="N" horiz-adv-x="1566" d="M154 0v1434h342l565 -891h6v891h338v-1434h-344l-565 897h-4v-897h-338z" />
<glyph unicode="O" horiz-adv-x="1628" d="M86 717q0 107 20.5 207.5t72.5 203t132 177.5t208.5 122.5t291.5 47.5q181 0 321 -57t227.5 -159.5t132 -239.5t44.5 -302t-44.5 -302t-132 -239.5t-227.5 -159.5t-321 -57q-163 0 -291.5 47.5t-208.5 122.5t-132 177.5t-72.5 203t-20.5 207.5zM453 717q0 -135 29 -232 t81 -149t112.5 -75t135.5 -23q71 0 128 21t94 52.5t64 77.5t41 88t22 93t9.5 82t1.5 65q0 36 -1.5 68t-9.5 83.5t-22 92.5t-41 87t-64 76.5t-94 51t-128 20.5q-358 0 -358 -479z" />
<glyph unicode="P" horiz-adv-x="1419" d="M154 0v1434h667q91 0 168 -14t147 -47.5t119 -85.5t78 -132.5t29 -183.5q0 -477 -549 -477h-321v-494h-338zM492 772h264q123 0 182 47t59 150q0 39 -9.5 69.5t-22 49.5t-35 32.5t-39.5 20t-45 10t-41.5 4t-38.5 0.5h-10h-264v-383z" />
<glyph unicode="Q" horiz-adv-x="1626" d="M86 717q0 75 10 147.5t34.5 148.5t62 142.5t95 126t130.5 102t173 67t218 24.5q180 0 320 -57t227.5 -159.5t132.5 -239.5t45 -302q0 -92 -15 -176t-35.5 -141t-49 -109t-49 -79t-42.5 -50l164 -162l-153 -154l-183 187q-144 -74 -362 -74q-133 0 -243 31t-183 80 t-129 118t-87 137t-50 145.5t-25 134.5t-6 112zM451 717q0 -479 358 -479q101 0 172 38l-180 175l133 129l172 -179q63 112 63 316q0 109 -20.5 194t-53.5 138t-81 86.5t-97.5 47t-107.5 13.5q-358 0 -358 -479z" />
<glyph unicode="R" horiz-adv-x="1470" d="M154 0v1434h733q37 0 73.5 -3t87 -13.5t93.5 -27.5t87.5 -48t75.5 -72.5t50.5 -104t19.5 -139.5q0 -270 -250 -358v-4q47 -14 83.5 -38t57.5 -56t35 -62t20 -69t7.5 -64.5t1.5 -59.5q6 -175 15 -216q10 -53 40 -99h-344q-21 31 -31.5 66.5t-13 63.5t-5.5 103t-7 132 q-15 163 -223 163h-3h-5h-260v-528h-338zM492 791h309q54 0 95 12.5t63.5 30.5t36.5 43.5t18 47.5t4 46q0 101 -57 142.5t-173 41.5h-296v-364z" />
<glyph unicode="S" horiz-adv-x="1378" d="M72 465h342q0 -30 6 -58t25 -60t49.5 -55t83.5 -38.5t122 -15.5q53 0 94 5.5t80 20.5t60.5 45.5t21.5 75.5q0 24 -7 45t-16 37t-28.5 31.5t-34 25.5t-44 21.5t-46 17.5t-52.5 15t-52.5 12.5t-55.5 11.5q-19 4 -28 6q-63 14 -107.5 25.5t-97.5 30.5t-89 41t-72.5 55 t-58 73.5t-35 95.5t-13.5 122q0 72 19 133t63 115.5t111 93t167.5 60.5t227.5 22q115 0 208 -25.5t153.5 -67.5t102 -99.5t60 -117.5t20.5 -125h-319q-20 156 -246 156q-117 0 -169 -38.5t-52 -98.5q0 -30 12 -54.5t35 -42t48 -30t61 -22.5t63 -15.5t64 -11.5 q65 -13 111.5 -24t102.5 -27t95 -34t81.5 -43t69.5 -55.5t50 -69t34 -87.5t11 -107q0 -32 -3 -63.5t-17 -81.5t-38 -92.5t-70 -88.5t-107.5 -77.5t-157.5 -52.5t-214 -21q-109 0 -200.5 18.5t-154.5 48.5t-112 72.5t-78 87t-47.5 96t-25 95.5t-6.5 88z" />
<glyph unicode="T" horiz-adv-x="1259" d="M27 1155v279h1204v-279h-432v-1155h-338v1155h-434z" />
<glyph unicode="U" horiz-adv-x="1519" d="M135 543v891h338v-836q0 -185 64.5 -272.5t218.5 -87.5q153 0 217.5 85.5t64.5 274.5v836h338v-891q0 -31 -1.5 -58.5t-8 -73t-18 -84.5t-34.5 -87t-53.5 -86t-78 -75.5t-106.5 -63t-141 -41t-179 -15.5q-124 0 -224 25t-163.5 62.5t-110 94t-69.5 106t-36 113.5 t-15.5 100.5t-2.5 82.5z" />
<glyph unicode="V" horiz-adv-x="1292" d="M-18 1434h387l290 -1024l279 1024h375l-488 -1434h-358z" />
<glyph unicode="W" horiz-adv-x="1943" d="M-18 1434h356l231 -1047l250 1047h307l250 -1047l232 1047h356l-379 -1434h-366l-246 1059l-246 -1059h-367z" />
<glyph unicode="X" horiz-adv-x="1443" d="M0 0l504 745l-459 689h401l275 -471l276 471h402l-461 -689l506 -745h-426l-297 494l-295 -494h-426z" />
<glyph unicode="Y" horiz-adv-x="1320" d="M-18 1434h385l303 -621l303 621h368l-501 -893v-541h-340v541z" />
<glyph unicode="Z" horiz-adv-x="1308" d="M53 0v299l725 856h-688v279h1114v-260l-739 -895h786v-279h-1198z" />
<glyph unicode="[" horiz-adv-x="872" d="M217 -379v1813h541v-189h-271v-1435h271v-189h-541z" />
<glyph unicode="\" horiz-adv-x="915" d="M0 1434h164l751 -1813h-163z" />
<glyph unicode="]" horiz-adv-x="878" d="M109 -190h270v1435h-270v189h540v-1813h-540v189z" />
<glyph unicode="^" horiz-adv-x="942" d="M59 987l267 447h286l267 -447h-205l-205 348l-205 -348h-205z" />
<glyph unicode="_" horiz-adv-x="1017" d="M0 -215h1018v-164h-1018v164z" />
<glyph unicode="`" horiz-adv-x="714" d="M39 1434h328l141 -271h-252z" />
<glyph unicode="a" horiz-adv-x="1243" d="M96 262q0 50 12 91.5t31.5 71.5t50 55t61.5 41t73.5 29.5t77.5 21.5t81 16q40 6 88.5 11.5t74.5 8.5t56 8.5t44.5 11t28.5 16t19.5 25.5t6.5 36v28q-6 137 -168 137q-22 0 -42 -2t-49 -12t-49.5 -26.5t-35.5 -48.5t-15 -76h-297q3 74 26.5 134t57 98t80.5 66t89 42 t93 22.5t81 10t63 1.5q97 0 174 -16t126 -39.5t84.5 -60.5t53 -68.5t27 -75.5t11 -69t1.5 -60l-6 -475v-29q0 -76 9 -114q11 -44 52 -54v-18h-327l-27 102h-6q-58 -73 -150 -107t-198 -34q-94 0 -164.5 23.5t-107 56.5t-58.5 78t-27.5 77t-5.5 66zM416 291q0 -35 16 -60 t42 -37.5t51 -18t50 -5.5t53 6.5t60 25t57 46.5t41.5 75t16.5 107v66q-28 -13 -44.5 -20t-34 -12t-28.5 -7t-41 -7t-57 -10q-26 -4 -45 -8t-47 -15t-45.5 -26t-31 -41t-13.5 -59z" />
<glyph unicode="b" horiz-adv-x="1310" d="M125 0v1434h311v-498q58 70 141 106.5t173 36.5q225 0 353 -151t128 -404q0 -116 -26.5 -211.5t-72 -159.5t-107 -108t-129.5 -64t-142 -20q-108 0 -182 36.5t-152 127.5h-6v-125h-289zM420 520q0 -180 69.5 -265t174.5 -85q113 0 178 93t65 257q0 97 -22.5 172.5 t-79 126.5t-141.5 51q-48 0 -87.5 -16t-64.5 -39.5t-43 -58.5t-27 -66t-14.5 -68t-6.5 -58t-1 -44z" />
<glyph unicode="c" horiz-adv-x="1218" d="M76 518q0 80 14.5 153.5t54.5 150t102 131.5t165.5 90.5t236.5 35.5q102 0 184.5 -24.5t135.5 -64.5t89.5 -94.5t54 -109.5t22.5 -116h-299q-16 115 -68 157.5t-131 42.5q-27 0 -51.5 -4t-61 -23t-62 -51.5t-44.5 -97.5t-19 -153q0 -83 12.5 -147.5t34.5 -103t46 -64.5 t53 -37t48.5 -15t39.5 -4q58 0 100.5 24t64 61t31 72t9.5 66h307q-3 -54 -18.5 -107.5t-53 -114t-92.5 -105.5t-145.5 -75t-204.5 -30q-259 0 -407 144.5t-148 412.5z" />
<glyph unicode="d" horiz-adv-x="1312" d="M76 524q0 249 129.5 402t349.5 153q83 0 172 -38.5t141 -104.5v498h312v-1434h-312v125h-4q-81 -89 -150 -126.5t-165 -37.5q-218 0 -345.5 155t-127.5 408zM399 520q0 -163 65.5 -256.5t176.5 -93.5q105 0 174.5 85t69.5 265q0 170 -63.5 260t-180.5 90 q-83 0 -139.5 -51.5t-79.5 -127.5t-23 -171z" />
<glyph unicode="e" horiz-adv-x="1277" d="M76 522q0 132 43 238t121 175.5t184.5 106.5t234.5 37q103 0 187 -25t137.5 -64t94 -93.5t61.5 -106t34 -110t17 -97t6 -74.5v-7l2 -58h-799q0 -43 11.5 -86t37.5 -87.5t78 -72.5t123 -28q74 0 133 33t78 98h316q-95 -340 -541 -340q-28 0 -55.5 1.5t-70 8t-80.5 17.5 t-83 32t-82 49t-73 71t-60.5 96.5t-39.5 126.5t-15 159zM399 618h475q-2 64 -18.5 111.5t-39 73.5t-53.5 42t-56 20.5t-52 4.5q-66 0 -116.5 -24t-79 -63t-43.5 -80.5t-17 -84.5z" />
<glyph unicode="f" horiz-adv-x="792" d="M27 831v209h190v131q0 77 26 131t77.5 85t120 45t161.5 14q116 0 162 -12v-209q-54 12 -117 12q-119 0 -119 -119v-78h234v-209h-234v-831h-311v831h-190z" />
<glyph unicode="g" horiz-adv-x="1320" d="M82 528q0 258 128 404.5t351 146.5q41 0 71.5 -4t75 -17t86 -46.5t76.5 -85.5h7v114h311v-944q0 -94 -18 -170t-47.5 -127.5t-73.5 -90t-88.5 -60.5t-100 -35t-101 -17t-97.5 -4q-67 0 -123.5 6t-123.5 26t-115.5 54t-88 95.5t-53.5 144.5h303q27 -117 203 -117 q55 0 96.5 19t63 45.5t34.5 64t16 64t3 55.5v103h-9q-66 -66 -139.5 -96.5t-171.5 -30.5q-95 0 -178 29t-150.5 87.5t-107 158t-39.5 228.5zM406 547q0 -39 4 -75t18.5 -82t39 -78.5t70.5 -55.5t107 -23q35 0 63.5 5t63 24t58 51t39.5 91t16 139q0 153 -65.5 240t-176.5 87 q-58 0 -103 -25t-69.5 -60.5t-40 -82.5t-20 -84t-4.5 -71z" />
<glyph unicode="h" horiz-adv-x="1259" d="M125 0v1434h311v-506q128 151 352 151q345 0 345 -426v-653h-312v602q0 37 -2 65.5t-12 69t-28 67.5t-52.5 46.5t-81.5 19.5q-49 0 -86.5 -17.5t-59 -48t-35.5 -61t-19.5 -67.5t-7 -55t-1.5 -35v-586h-311z" />
<glyph unicode="i" horiz-adv-x="569" d="M125 0v1040h311v-1040h-311zM125 1190v244h311v-244h-311z" />
<glyph unicode="j" horiz-adv-x="567" d="M-59 -170q20 -4 28 -4q36 0 63 5.5t43.5 18t26.5 24.5t14.5 32.5t5.5 35t1 38.5v1060h311v-1091q0 -68 -11.5 -122t-29 -89.5t-44.5 -61t-51.5 -38.5t-57.5 -20.5t-54.5 -9t-50.5 -1.5q-128 0 -194 14v209zM123 1190v244h311v-244h-311z" />
<glyph unicode="k" horiz-adv-x="1183" d="M125 0v1434h311v-789l357 395h374l-411 -409l448 -631h-370l-291 432l-107 -108v-324h-311z" />
<glyph unicode="l" horiz-adv-x="569" d="M125 0v1434h311v-1434h-311z" />
<glyph unicode="m" horiz-adv-x="1878" d="M125 0v1040h291v-151q133 190 319 190q227 0 305 -209q39 58 83.5 99.5t80.5 62t77.5 32t64 13.5t51.5 2q354 0 354 -446v-633h-311v612q0 258 -156 258q-77 0 -133.5 -65t-56.5 -207v-598h-312v612q0 127 -34.5 192.5t-122.5 65.5q-32 0 -63.5 -14.5t-60.5 -44t-47 -85 t-18 -128.5v-598h-311z" />
<glyph unicode="n" horiz-adv-x="1259" d="M125 0v1040h299v-125q60 83 155 123.5t205 40.5q50 0 90.5 -6.5t91.5 -32.5t85 -69.5t58 -125t24 -192.5v-653h-312v602q0 39 -2 68t-12 69.5t-28 66.5t-52.5 45t-81.5 19q-49 0 -86.5 -17t-59 -47t-35.5 -60t-19.5 -67t-7 -55.5t-1.5 -37.5v-586h-311z" />
<glyph unicode="o" horiz-adv-x="1294" d="M76 522q0 119 31.5 215t85 159t127.5 105t154.5 60t170.5 18q124 0 226.5 -34.5t179.5 -101.5t120 -174.5t43 -246.5q0 -140 -43 -248.5t-120.5 -176t-180 -102t-225.5 -34.5t-225.5 34.5t-180 102t-120.5 176t-43 248.5zM399 522q0 -352 246 -352t246 352 q0 68 -10 123.5t-25 91t-38 61.5t-44 39.5t-47.5 21.5t-43.5 9.5t-38 1.5q-246 0 -246 -348z" />
<glyph unicode="p" horiz-adv-x="1310" d="M125 -379v1419h293l-2 -125h6q132 164 336 164q219 0 346 -151t127 -410q0 -249 -129.5 -403t-349.5 -154q-24 0 -54.5 4.5t-79 17t-98 44.5t-84.5 79v-485h-311zM422 522q0 -71 13 -131.5t40.5 -111.5t76 -80t114.5 -29q65 0 113 29t75 80t40 111.5t13 131.5 q0 70 -11 126.5t-31 93.5t-43.5 63t-52 39.5t-53.5 19.5t-50 6q-32 0 -62 -8t-64 -31t-59.5 -60t-42 -101.5t-16.5 -147.5z" />
<glyph unicode="q" horiz-adv-x="1316" d="M76 518q0 146 39.5 257t107.5 175.5t152 96.5t180 32q99 0 195 -47t127 -117h12v125h295v-1419h-312v485q-58 -75 -141 -110t-172 -35q-95 0 -179.5 32.5t-153.5 97.5t-109.5 175t-40.5 252zM399 522q0 -43 6 -86.5t23 -92.5t43.5 -86.5t71.5 -62t102 -24.5 q59 0 104.5 24.5t71 61t42 86.5t21.5 92.5t5 87.5q0 83 -16.5 147.5t-42 101.5t-59.5 60t-64 31t-62 8q-58 0 -103 -25t-71.5 -62t-43 -86t-22.5 -91.5t-6 -83.5z" />
<glyph unicode="r" horiz-adv-x="868" d="M125 0v1040h311v-170q101 209 367 209h37v-209q-14 2 -41 2h-41q-57 0 -102 -11t-87.5 -40.5t-70.5 -78.5t-45 -129t-17 -187v-426h-311z" />
<glyph unicode="s" horiz-adv-x="1142" d="M61 328h320q8 -158 209 -158q63 0 113.5 28t50.5 83q0 28 -9 49.5t-30 36.5t-41.5 25t-57 18.5t-63 13t-70.5 10.5q-19 3 -28 4q-40 6 -69.5 12t-70.5 18t-70.5 27t-61 39.5t-51.5 55t-33 74.5t-13 96q0 24 3 47t15 56t31.5 61.5t56.5 58t85.5 50t122.5 33.5t165 13 q108 0 192 -21t134 -53t82.5 -77t44.5 -86.5t14 -87.5h-282q-2 25 -11 44.5t-18 31.5t-27.5 20.5t-28.5 12t-31.5 5.5t-25.5 2h-22q-176 0 -176 -90q0 -18 4.5 -33.5t11 -27.5t19.5 -22t23.5 -17t29.5 -13.5t31 -10t35.5 -8t34.5 -6t36.5 -5t34.5 -4.5q162 -25 233 -55 q174 -72 174 -263q0 -52 -11 -98t-44 -94.5t-86 -83t-144.5 -56.5t-211.5 -22q-241 0 -377 99t-142 268z" />
<glyph unicode="t" horiz-adv-x="790" d="M27 831v209h188v312h311v-312h222v-209h-222v-499v-49q0 -40 28.5 -66.5t94.5 -26.5q48 0 99 19v-209q-145 -29 -254 -29q-153 0 -216 70.5t-63 232.5v557h-188z" />
<glyph unicode="u" horiz-adv-x="1259" d="M119 389v651h311v-602q0 -149 42 -208.5t132 -59.5q47 0 84 15.5t58.5 42.5t36.5 56.5t21.5 65t8.5 59.5t2 48v583h311v-1040h-311v125q-82 -92 -165 -128t-183 -36q-348 0 -348 428z" />
<glyph unicode="v" horiz-adv-x="1067" d="M-18 1040h327l226 -753l225 753h327l-380 -1040h-345z" />
<glyph unicode="w" horiz-adv-x="1636" d="M-18 1040h315l188 -733l193 733h283l192 -733l188 733h316l-340 -1040h-299l-199 705l-198 -705h-299z" />
<glyph unicode="x" horiz-adv-x="1138" d="M0 0l389 539l-371 501h361l190 -323l193 323h358l-368 -501l387 -539h-359l-211 340l-211 -340h-358z" />
<glyph unicode="y" horiz-adv-x="1142" d="M8 1040h375l242 -678l186 678h332l-363 -1095q-39 -124 -67 -176q-92 -166 -299 -166q-120 0 -219 18v209q31 -14 100 -14q118 0 151 145l15 51z" />
<glyph unicode="z" horiz-adv-x="1052" d="M53 0v209l553 622h-508v209h871v-206l-543 -625h569v-209h-942z" />
<glyph unicode="{" horiz-adv-x="1030" d="M270 510v190q76 0 129.5 64.5t53.5 202.5q0 30 -4 108q-5 88 -5 103q0 85 24 149t61 99.5t89 56.5t99 26.5t100 3.5v-149q-143 -38 -143 -186q0 -17 1 -36t2.5 -41t2.5 -36q4 -46 4 -64v-63q0 -236 -233 -326v-14q133 -58 183 -135t50 -191v-63q0 -18 -4 -64q0 -3 -3 -47 t-3 -67q0 -83 44.5 -129.5t98.5 -55.5v-149q-104 -6 -179.5 19.5t-116 75.5t-59 109t-18.5 130q0 34 4.5 91t4.5 122q0 132 -50.5 195t-132.5 71z" />
<glyph unicode="|" horiz-adv-x="960" d="M387 -459v2157h164v-2157h-164z" />
<glyph unicode="}" horiz-adv-x="1034" d="M201 -154q54 9 98.5 55.5t44.5 129.5q0 17 -1 36t-2.5 42t-2.5 36q-4 46 -4 64v63q0 113 50 190.5t183 135.5v14q-233 90 -233 326v63q0 18 4 64q1 14 2.5 36t2.5 41t1 36q0 148 -143 186v149q48 2 93.5 -3.5t98 -26.5t91 -56.5t64 -99.5t25.5 -149q0 -14 -4 -77.5 t-4 -133.5q0 -136 54 -201.5t129 -65.5v-190q-41 -4 -73.5 -20.5t-51.5 -43t-31.5 -53t-18 -58.5t-7 -51.5t-1.5 -39.5q0 -71 4 -132t4 -81q0 -60 -12.5 -110.5t-34 -84t-49.5 -60t-59 -40.5t-63 -25t-61 -12.5t-53.5 -3.5t-39.5 2v149z" />
<glyph unicode="~" horiz-adv-x="1359" d="M102 623q19 50 46.5 97.5t68.5 96.5t98 79t121 30q94 0 178 -47l211 -113q52 -27 107 -27q61 0 102 43.5t74 122.5l141 -74q-19 -50 -46.5 -97.5t-68.5 -96.5t-98 -79t-121 -30q-94 0 -178 47l-211 113q-50 27 -108 27q-46 0 -83.5 -27.5t-57.5 -62t-33 -76.5z" />
<glyph unicode="&#xa2;" d="M133 530q0 123 31.5 220.5t80 156.5t113.5 98t125.5 54.5t122.5 17.5v221h162v-223q92 -4 170.5 -40t130.5 -93.5t83.5 -127.5t37.5 -144h-299q-25 202 -199 202q-14 0 -24.5 -0.5t-37 -7t-46.5 -17.5t-45 -35.5t-42 -58.5t-28.5 -89t-11.5 -123q0 -75 12.5 -135.5 t31 -98t45.5 -65.5t49 -40.5t48 -20t37 -8.5t22 -1q44 0 79 16t55 39.5t33.5 55.5t18.5 57.5t7 52.5h307q-6 -78 -37.5 -151t-84.5 -134t-134 -99t-178 -42v-237h-162v237q-215 12 -344 165t-129 398z" />
<glyph unicode="&#xa3;" d="M84 596v162h133q-76 118 -76 252q0 213 147.5 339t393.5 126q109 0 196 -26t141 -63t93.5 -93.5t57.5 -101.5t28 -104t11 -84.5t1 -58.5v-6h-309q8 73 -10 137t-71.5 108t-135.5 44q-61 0 -105.5 -21t-68 -56.5t-34.5 -75t-11 -85.5q0 -50 19.5 -100.5t68.5 -130.5h276 v-162h-235q4 -28 4 -41q0 -158 -98 -236l4 -8q50 21 127 21q32 0 61.5 -6.5t43.5 -12.5t50 -22q88 -37 144 -37q44 0 84.5 18.5t85.5 73.5l143 -223q-100 -89 -140 -114q-85 -56 -177 -56q-30 0 -90 12.5t-103 26.5q-25 9 -74 32t-91.5 36.5t-86.5 13.5q-100 0 -194 -80 l-154 231q178 133 178 273q0 56 -18 98h-209z" />
<glyph unicode="&#xa5;" d="M-18 1434h387l305 -621l303 621h373l-514 -893v-76h149v-84h-149v-74h149v-86h-149v-221h-338v221h-150v86h150v74h-150v84h150v76z" />
<glyph unicode="&#xa8;" horiz-adv-x="1105" d="M102 1190v244h312v-244h-312zM680 1190v244h311v-244h-311z" />
<glyph unicode="&#xa9;" horiz-adv-x="1656" d="M109 717q0 195 94.5 359.5t259.5 261t362 96.5t362 -96.5t260 -261t95 -359.5t-95 -359.5t-260 -261t-362 -96.5t-362 96.5t-259.5 261t-94.5 359.5zM281 717q0 -157 73 -288t198 -206.5t273 -75.5t273.5 75.5t198.5 206.5t73 288t-73 288t-198.5 206t-273.5 75t-273 -75 t-198 -206t-73 -288zM494 715q0 89 21.5 159t55 111.5t79 68t88 36.5t87.5 10q36 0 73 -7t76 -24t68.5 -43t48.5 -68t19 -94h-160q-2 43 -32.5 72t-92.5 29q-43 0 -74 -21.5t-47 -59.5t-23 -79t-7 -90q0 -126 48 -179t114 -53q60 0 89.5 37t35.5 84h167q-14 -78 -44 -131.5 t-72.5 -79t-84 -35.5t-93.5 -10q-80 0 -142.5 25.5t-99 63.5t-59.5 89.5t-31 97t-8 91.5z" />
<glyph unicode="&#xab;" horiz-adv-x="962" d="M117 406v286l307 283v-283l-168 -143l168 -143v-283zM504 406v286l307 283v-283l-168 -143l168 -143v-283z" />
<glyph unicode="&#xad;" horiz-adv-x="925" d="M162 420v256h592v-256h-592z" />
<glyph unicode="&#xae;" horiz-adv-x="1656" d="M109 717q0 195 94.5 359.5t259.5 261t362 96.5t362 -96.5t260 -261t95 -359.5t-95 -359.5t-260 -261t-362 -96.5t-362 96.5t-259.5 261t-94.5 359.5zM281 717q0 -157 73 -288t198 -206.5t273 -75.5t273.5 75.5t198.5 206.5t73 288t-73 288t-198.5 206t-273.5 75t-273 -75 t-198 -206t-73 -288zM563 365v716h318q64 0 111 -18t72 -48.5t36.5 -64t11.5 -69.5q0 -70 -36.5 -112t-80.5 -58v-4q103 -26 103 -181q2 -25 2 -61q0 -38 5.5 -59t22.5 -41h-176q-15 19 -22.5 46.5t-8.5 43.5t0 52t1 42q0 46 -34 72t-120 26h-35v-282h-170zM733 772h90 q26 0 49.5 5.5t45.5 28.5t22 62q0 51 -33 69.5t-100 18.5h-74v-184z" />
<glyph unicode="&#xb4;" horiz-adv-x="706" d="M201 1163l141 271h328l-217 -271h-252z" />
<glyph unicode="&#xb8;" horiz-adv-x="612" d="M76 -467l35 127q49 -18 116 -18q51 0 79 12.5t28 52.5q0 39 -31 50.5t-96 13.5h-35h-27l31 114q12 2 35 2h37q48 0 91.5 -7t92.5 -25t78 -57.5t29 -96.5q0 -92 -69 -142.5t-198 -50.5q-100 0 -196 25z" />
<glyph unicode="&#xbb;" horiz-adv-x="962" d="M152 123v283l167 143l-167 143v283l307 -283v-286zM539 123v283l168 143l-168 143v283l307 -283v-286z" />
<glyph unicode="&#x2c6;" horiz-adv-x="1069" d="M102 1163l228 271h409l228 -271h-244l-188 189l-189 -189h-244z" />
<glyph unicode="&#x2da;" horiz-adv-x="606" d="M102 1327q0 85 58 143t143 58t143 -58t58 -143t-58 -143t-143 -58t-143 58t-58 143zM213 1327q0 -37 26.5 -63.5t63.5 -26.5t63.5 26.5t26.5 63.5t-26.5 63.5t-63.5 26.5t-63.5 -26.5t-26.5 -63.5z" />
<glyph unicode="&#x2dc;" horiz-adv-x="1097" d="M102 1192q20 119 90.5 188.5t159.5 69.5q94 0 197 -55q60 -29 93.5 -39t74.5 -10q39 0 62 24.5t28 63.5h188q-14 -65 -37 -113.5t-48 -76.5t-56 -45t-56 -22.5t-53 -5.5q-23 0 -41.5 2t-30.5 3.5t-29 8t-26 10.5t-32 15t-37 17q-114 49 -166 49q-78 0 -90 -84h-191z" />
<glyph unicode="&#x401;" horiz-adv-x="1353" d="M154 0v1434h1132v-279h-794v-291h700v-264h-700v-321h813v-279h-1151zM330 1569v217h291v-217h-291zM838 1569v217h290v-217h-290z" />
<glyph unicode="&#x402;" horiz-adv-x="1882" d="M98 1155v279h1205v-279h-433v-305q240 16 322 16q125 0 221 -28.5t153 -73t93 -107.5t48.5 -123.5t12.5 -130.5q0 -199 -125 -321.5t-352 -122.5q-74 0 -184 31v254q63 -15 94 -15q38 0 70.5 7.5t64 25t50 53.5t18.5 86q0 42 -8.5 71.5t-34 58t-79.5 43t-136 14.5 q-88 0 -228 -17v-571h-340v1155h-432z" />
<glyph unicode="&#x403;" horiz-adv-x="1140" d="M154 0v1434h958v-279h-620v-1155h-338zM336 1569l141 270h328l-217 -270h-252z" />
<glyph unicode="&#x404;" horiz-adv-x="1572" d="M86 735q0 165 44.5 299t133.5 233.5t232.5 153.5t332.5 54q149 0 270 -39.5t199 -107t123.5 -152t55.5 -179.5h-353q-23 97 -108.5 148t-210.5 51q-329 0 -354 -344h624v-262h-624q7 -184 96 -268t258 -84q256 0 325 200h357q-8 -40 -21 -79t-39 -88t-60.5 -91.5t-88 -84 t-119 -71t-157 -47.5t-197.5 -18q-38 0 -71 1.5t-89.5 10t-104 23t-106.5 42.5t-106 66.5t-94 98.5t-78 133.5t-50.5 176.5t-19.5 224z" />
<glyph unicode="&#x405;" horiz-adv-x="1378" d="M72 465h342q0 -30 6 -58t25 -60t49.5 -55t83.5 -38.5t122 -15.5q53 0 94 5.5t80 20.5t60.5 45.5t21.5 75.5q0 24 -7 45t-16 37t-28.5 31.5t-34 25.5t-44 21.5t-46 17.5t-52.5 15t-52.5 12.5t-55.5 11.5q-19 4 -28 6q-63 14 -107.5 25.5t-97.5 30.5t-89 41t-72.5 55 t-58 73.5t-35 95.5t-13.5 122q0 72 19 133t63 115.5t111 93t167.5 60.5t227.5 22q115 0 208 -25.5t153.5 -67.5t102 -99.5t60 -117.5t20.5 -125h-319q-20 156 -246 156q-117 0 -169 -38.5t-52 -98.5q0 -30 12 -54.5t35 -42t48 -30t61 -22.5t63 -15.5t64 -11.5 q65 -13 111.5 -24t102.5 -27t95 -34t81.5 -43t69.5 -55.5t50 -69t34 -87.5t11 -107q0 -32 -3 -63.5t-17 -81.5t-38 -92.5t-70 -88.5t-107.5 -77.5t-157.5 -52.5t-214 -21q-109 0 -200.5 18.5t-154.5 48.5t-112 72.5t-78 87t-47.5 96t-25 95.5t-6.5 88z" />
<glyph unicode="&#x406;" horiz-adv-x="653" d="M154 0v1434h338v-1434h-338z" />
<glyph unicode="&#x407;" horiz-adv-x="653" d="M-76 1569v217h291v-217h-291zM154 0v1434h338v-1434h-338zM432 1569v217h291v-217h-291z" />
<glyph unicode="&#x408;" horiz-adv-x="1204" d="M53 438v90h338v-57q0 -120 39.5 -176.5t134.5 -56.5q93 0 125.5 56.5t32.5 176.5v963h338v-916q0 -103 -15.5 -186t-42 -140.5t-65.5 -100t-80 -67.5t-93 -40t-98 -20t-100 -5q-127 0 -223.5 34.5t-150 84.5t-87 118.5t-43.5 125.5t-10 116z" />
<glyph unicode="&#x409;" horiz-adv-x="2463" d="M27 0v279q57 -5 59 -5q34 0 56.5 2.5t53.5 12.5t51.5 29t43 54t36 84.5t23 124t10.5 169.5l11 684h1061v-521h358q121 0 213.5 -28.5t148 -73.5t90.5 -108.5t47.5 -125.5t12.5 -133q0 -228 -130.5 -336t-383.5 -108h-694v1155h-404l-10 -500q-2 -72 -6 -123.5t-17.5 -126 t-35.5 -127t-62.5 -110t-96 -93.5t-139 -59.5t-188.5 -23.5q-56 0 -108 8zM1432 279h288q108 0 162.5 41.5t54.5 136.5q0 96 -55.5 137t-171.5 41h-278v-356z" />
<glyph unicode="&#x40a;" horiz-adv-x="2299" d="M154 0v1434h338v-521h520v521h338v-521h356q40 0 79 -3.5t92.5 -15t99 -31t93 -55.5t80 -83.5t53.5 -120t21 -160.5q0 -444 -520 -444h-692v635h-520v-635h-338zM1350 279h286q113 0 168.5 41.5t55.5 136.5q0 96 -57.5 137t-176.5 41h-276v-356z" />
<glyph unicode="&#x40b;" horiz-adv-x="1855" d="M98 1155v279h1205v-279h-433v-305q184 16 322 16q123 0 212.5 -20t145 -54t88 -89.5t44.5 -117.5t12 -147v-438h-338v346q0 131 -53.5 186.5t-196.5 55.5q-107 0 -236 -17v-571h-338v1155h-434z" />
<glyph unicode="&#x40c;" horiz-adv-x="1396" d="M154 0v1434h338v-603h4l491 603h397l-575 -656l608 -778h-413l-508 700h-4v-700h-338zM463 1569l141 270h328l-217 -270h-252z" />
<glyph unicode="&#x40e;" horiz-adv-x="1318" d="M8 1434h404l313 -701l248 701h366l-467 -1141q-35 -86 -77.5 -146.5t-83 -94t-92.5 -52t-93 -23t-98 -4.5q-101 0 -215 27v279q82 -21 145 -21q145 0 181 137zM254 1786h227q0 -59 43.5 -98t134.5 -39q90 0 133.5 38.5t45.5 98.5h227q0 -22 -6 -43q-8 -44 -33 -82 q-81 -132 -278 -152q-43 -6 -89 -6q-45 0 -88 6q-62 7 -111 23t-98 53q-34 24 -67 76q-28 47 -35 82q-6 21 -6 43z" />
<glyph unicode="&#x40f;" horiz-adv-x="1533" d="M154 0v1434h338v-1155h542v1155h338v-1434h-461v-463h-297v463h-460z" />
<glyph unicode="&#x410;" horiz-adv-x="1378" d="M-18 0l536 1434h342l539 -1434h-359l-92 268h-520l-90 -268h-356zM502 512h372l-184 547z" />
<glyph unicode="&#x411;" horiz-adv-x="1468" d="M154 0v1434h1114v-279h-776v-254h346q36 0 68 -1.5t90.5 -11.5t105.5 -27.5t101.5 -52.5t91.5 -83t62 -123.5t25 -169.5q0 -214 -144 -323t-400 -109h-684zM492 279h274q44 0 78 3.5t68 14t56 27.5t36 46.5t14 69.5q0 183 -246 183h-280v-344z" />
<glyph unicode="&#x412;" horiz-adv-x="1488" d="M154 0v1434h718q108 0 189.5 -23.5t128.5 -59.5t76.5 -86.5t39 -97t9.5 -98.5q0 -219 -236 -299v-2q38 -8 74.5 -21.5t80 -42.5t75.5 -67t53.5 -99.5t21.5 -136.5q0 -72 -17.5 -130.5t-46.5 -99.5t-72 -72t-89.5 -49.5t-103.5 -30t-108.5 -15.5t-110.5 -4h-682zM492 279 h350q20 0 42 4t48.5 15t47 28.5t34.5 47t14 66.5q0 40 -12.5 69.5t-32.5 47.5t-50.5 28.5t-62 14.5t-71.5 4h-307v-325zM492 868h311q48 0 83.5 15t52.5 39t24.5 47t7.5 47q0 25 -8 47t-27 44t-57 35t-91 13h-296v-287z" />
<glyph unicode="&#x413;" horiz-adv-x="1140" d="M154 0v1434h958v-279h-620v-1155h-338z" />
<glyph unicode="&#x414;" horiz-adv-x="1628" d="M0 279h141q119 177 168 378t49 445v332h1039v-1155h202l-16 -603h-299v324h-969v-324h-299zM508 279h551v876h-383l-2 -170q-5 -248 -41.5 -411.5t-124.5 -294.5z" />
<glyph unicode="&#x415;" horiz-adv-x="1355" d="M154 0v1434h1132v-279h-794v-291h700v-264h-700v-321h815v-279h-1153z" />
<glyph unicode="&#x416;" horiz-adv-x="2019" d="M-18 0l577 768l-561 666h399l439 -584h6v584h338v-584h6l438 584h399l-561 -666l578 -768h-410l-444 649h-6v-649h-338v649h-6l-445 -649h-409z" />
<glyph unicode="&#x417;" horiz-adv-x="1497" d="M72 494h327q10 -256 338 -256q85 0 146 17.5t90.5 47t42 59.5t12.5 64q0 174 -246 174h-202v264h168q235 0 235 160q0 41 -16.5 73t-46.5 49.5t-57.5 28.5t-65.5 15t-54 5t-38 1q-26 0 -45 -1.5t-53 -7.5t-58.5 -21t-49.5 -38.5t-40 -64.5t-17 -94h-329q8 142 55 241.5 t131 157t191.5 82.5t250.5 25q100 0 187 -12.5t165.5 -42.5t134 -75.5t88 -115.5t32.5 -158q0 -80 -27.5 -141.5t-72 -96t-87 -52.5t-86.5 -25v-4q160 -32 239 -117t79 -246q0 -430 -666 -430q-69 0 -128 5t-125.5 19.5t-120.5 38.5t-105.5 65t-87.5 96t-59.5 134t-28.5 177 z" />
<glyph unicode="&#x418;" horiz-adv-x="1562" d="M154 0v1434h338v-926l571 926h338v-1434h-338v936l-571 -936h-338z" />
<glyph unicode="&#x419;" horiz-adv-x="1562" d="M154 0v1434h338v-926l571 926h338v-1434h-338v936l-571 -936h-338zM371 1786h227q0 -59 43.5 -98t134.5 -39q90 0 133 38.5t45 98.5h228q-3 -55 -24 -100.5t-51 -74t-70.5 -50t-76.5 -32.5t-77 -17t-63.5 -7.5t-43.5 -1.5q-32 0 -66 3.5t-82 13t-89 30t-79 50t-61.5 77.5 t-27.5 109z" />
<glyph unicode="&#x41a;" horiz-adv-x="1396" d="M154 0v1434h338v-603h4l491 603h397l-575 -656l608 -778h-413l-508 700h-4v-700h-338z" />
<glyph unicode="&#x41b;" horiz-adv-x="1593" d="M27 0v279q92 -12 156.5 12.5t97 62.5t51 117t22.5 130.5t6 148.5l11 684h1061v-1434h-338v1155h-404l-10 -500q-3 -108 -12 -186t-48 -186t-104 -171t-190.5 -99t-298.5 -13z" />
<glyph unicode="&#x41c;" horiz-adv-x="1949" d="M154 0v1434h475l342 -985l342 985h475v-1434h-338v1024h-6l-359 -1024h-229l-358 1024h-6v-1024h-338z" />
<glyph unicode="&#x41d;" horiz-adv-x="1511" d="M154 0v1434h338v-539h520v539h338v-1434h-338v616h-520v-616h-338z" />
<glyph unicode="&#x41e;" horiz-adv-x="1628" d="M86 717q0 107 20.5 207.5t72.5 203t132 177.5t208.5 122.5t291.5 47.5q181 0 321 -57t227.5 -159.5t132 -239.5t44.5 -302t-44.5 -302t-132 -239.5t-227.5 -159.5t-321 -57q-163 0 -291.5 47.5t-208.5 122.5t-132 177.5t-72.5 203t-20.5 207.5zM453 717q0 -135 29 -232 t81 -149t112.5 -75t135.5 -23q71 0 128 21t94 52.5t64 77.5t41 88t22 93t9.5 82t1.5 65q0 36 -1.5 68t-9.5 83.5t-22 92.5t-41 87t-64 76.5t-94 51t-128 20.5q-358 0 -358 -479z" />
<glyph unicode="&#x41f;" horiz-adv-x="1531" d="M154 0v1434h1216v-1434h-338v1155h-540v-1155h-338z" />
<glyph unicode="&#x420;" horiz-adv-x="1419" d="M154 0v1434h667q91 0 168 -14t147 -47.5t119 -85.5t78 -132.5t29 -183.5q0 -477 -549 -477h-321v-494h-338zM492 772h264q123 0 182 47t59 150q0 39 -9.5 69.5t-22 49.5t-35 32.5t-39.5 20t-45 10t-41.5 4t-38.5 0.5h-10h-264v-383z" />
<glyph unicode="&#x421;" horiz-adv-x="1497" d="M86 690q0 122 19.5 226t51 178.5t78 135t93 99t104 67.5t103.5 43.5t98 23t82 10.5t61 2q146 0 261.5 -35.5t184.5 -89.5t115 -127.5t64.5 -140t21.5 -136.5h-331q-34 250 -299 250q-23 0 -43.5 -2t-57 -12.5t-66.5 -29t-64 -55.5t-57 -87.5t-38.5 -130t-15.5 -177.5 q0 -208 92.5 -336t259.5 -128q64 0 115 18t82.5 45.5t54.5 65t33.5 70.5t15.5 69h336q-5 -50 -16.5 -98t-34.5 -104t-55 -104t-83.5 -93.5t-115 -77t-153 -51t-194.5 -19.5q-115 0 -214.5 21.5t-191 74t-155.5 134t-102.5 209.5t-38.5 292z" />
<glyph unicode="&#x422;" horiz-adv-x="1259" d="M27 1155v279h1204v-279h-432v-1155h-338v1155h-434z" />
<glyph unicode="&#x423;" horiz-adv-x="1318" d="M8 1434h404l313 -701l248 701h366l-467 -1141q-35 -86 -77.5 -146.5t-83 -94t-92.5 -52t-93 -23t-98 -4.5q-101 0 -215 27v279q82 -21 145 -21q145 0 181 137z" />
<glyph unicode="&#x424;" horiz-adv-x="1923" d="M61 731q0 74 16.5 147t63 154t118.5 141t195 100t281 40h56v203h337v-203h54q115 0 212 -21t165 -55.5t121.5 -82.5t86.5 -100t54 -110.5t29 -110t8 -102.5q0 -76 -16.5 -149t-62.5 -153.5t-118.5 -140.5t-196 -99t-282.5 -39h-54v-203h-337v203h-56q-114 0 -210.5 20.5 t-164.5 54.5t-121.5 82t-86 99t-54 109.5t-29.5 111t-8 104.5zM414 731q0 -309 381 -309h26v618h-26h-6q-28 0 -47.5 -0.5t-61.5 -6.5t-73 -16.5t-70 -33.5t-63.5 -54.5t-42 -82.5t-17.5 -115zM1098 422h26q187 0 284 73.5t97 235.5q0 64 -17.5 115t-42 82.5t-63.5 54.5 t-70 33.5t-73.5 16.5t-61.5 6.5t-47 0.5h-6h-26v-618z" />
<glyph unicode="&#x425;" horiz-adv-x="1443" d="M0 0l504 745l-459 689h401l275 -471l276 471h402l-461 -689l506 -745h-426l-297 494l-295 -494h-426z" />
<glyph unicode="&#x426;" horiz-adv-x="1615" d="M154 0v1434h338v-1155h555v1155h337v-1155h203l-14 -603h-297v324h-1122z" />
<glyph unicode="&#x427;" horiz-adv-x="1423" d="M98 995v439h338v-347q0 -58 9.5 -98t35 -74.5t77 -51.5t130.5 -17q114 0 236 16v572h338v-1434h-338v584q-196 -17 -324 -17q-102 0 -181 13t-133.5 39.5t-91.5 62t-58 85.5t-29.5 104t-8.5 124z" />
<glyph unicode="&#x428;" horiz-adv-x="2228" d="M154 0v1434h340v-1155h446v1155h340v-1155h446v1155h340v-1434h-1912z" />
<glyph unicode="&#x429;" horiz-adv-x="2297" d="M154 0v1434h340v-1155h446v1155h340v-1155h446v1155h340v-1155h203l-16 -590h-297v311h-1802z" />
<glyph unicode="&#x42a;" horiz-adv-x="1585" d="M27 1155v279h608v-521h358q77 0 145.5 -12t138.5 -45t119.5 -84t81 -135t31.5 -193q0 -444 -518 -444h-694v1155h-270zM635 279h289q112 0 166.5 41t54.5 137q0 87 -53.5 132.5t-178.5 45.5h-278v-356z" />
<glyph unicode="&#x42b;" horiz-adv-x="1970" d="M154 0v1434h338v-521h356q121 0 213.5 -28.5t148.5 -73.5t91 -108.5t48 -126t13 -132.5q0 -444 -516 -444h-692zM492 279h286q108 0 163.5 41.5t55.5 136.5q0 99 -58.5 138.5t-170.5 39.5h-276v-356zM1470 0v1434h338v-1434h-338z" />
<glyph unicode="&#x42c;" horiz-adv-x="1439" d="M154 0v1434h338v-521h356q101 0 183 -19.5t137 -54.5t94.5 -79t61 -98.5t31 -107t9.5 -110.5q0 -229 -130 -336.5t-388 -107.5h-692zM492 279h286q109 0 165 41.5t56 136.5t-58.5 136.5t-172.5 41.5h-276v-356z" />
<glyph unicode="&#x42d;" horiz-adv-x="1587" d="M82 516h344q2 -52 24 -100.5t63 -89t107.5 -64.5t149.5 -24q48 0 90.5 7t92.5 29.5t86.5 59.5t62 103t28.5 153h-546v262h546q-7 69 -25.5 123.5t-41.5 90t-55.5 61t-60.5 38.5t-64.5 20.5t-59 9t-51.5 1.5q-87 0 -153 -24t-101.5 -62.5t-53.5 -76.5t-22 -77h-344 q5 73 28 143t73 139.5t121.5 121t183 83.5t248.5 32q124 0 228 -23.5t179.5 -64t134.5 -98t96 -121.5t61.5 -139t34 -146.5t9.5 -147.5q0 -119 -18.5 -220.5t-49.5 -175t-76 -133t-92 -98.5t-104.5 -68t-106.5 -44t-105 -24t-92.5 -11t-76.5 -2q-160 0 -289 43t-213.5 119 t-132.5 176.5t-57 218.5z" />
<glyph unicode="&#x42e;" horiz-adv-x="2215" d="M154 0v1434h338v-543h192q5 37 12.5 74.5t30 98t54 113t87 109.5t125.5 97t174.5 66t229.5 26q120 0 221 -24.5t174.5 -67t131.5 -102t95 -125.5t61 -142.5t34 -149t10 -147.5t-10 -147.5t-34 -149t-61 -142.5t-95 -125.5t-131.5 -102t-174.5 -67t-221 -24.5 q-160 0 -287 43.5t-205 110.5t-130.5 156.5t-74 173t-24.5 169.5h-184v-612h-338zM1040 717q0 -35 1.5 -66t9.5 -82t21.5 -92.5t41 -88t64 -78t93.5 -52t128 -20.5q72 0 130 20.5t94.5 51.5t63.5 78t40.5 87.5t21 92.5t9 82t1.5 67q0 479 -360 479q-71 0 -128 -20.5 t-93.5 -51t-64 -76.5t-41 -87t-21.5 -92.5t-9.5 -83t-1.5 -68.5z" />
<glyph unicode="&#x42f;" horiz-adv-x="1472" d="M72 973q0 85 20.5 155.5t53 117t78.5 82.5t91 55.5t98 31.5t92 15.5t79 3.5h727v-1434h-338v496h-180l-281 -496h-401l338 522q-53 7 -102.5 24.5t-100.5 52.5t-88.5 83.5t-61.5 123.5t-24 167zM436 969q0 -35 8.5 -65t31.5 -61.5t72.5 -50t121.5 -18.5h303v381h-316 q-64 0 -110 -16.5t-68.5 -45.5t-32.5 -59t-10 -65z" />
<glyph unicode="&#x430;" horiz-adv-x="1243" d="M96 262q0 50 12 91.5t31.5 71.5t50 55t61.5 41t73.5 29.5t77.5 21.5t81 16q40 6 88.5 11.5t74.5 8.5t56 8.5t44.5 11t28.5 16t19.5 25.5t6.5 36v28q-6 137 -168 137q-22 0 -42 -2t-49 -12t-49.5 -26.5t-35.5 -48.5t-15 -76h-297q3 74 26.5 134t57 98t80.5 66t89 42 t93 22.5t81 10t63 1.5q97 0 174 -16t126 -39.5t84.5 -60.5t53 -68.5t27 -75.5t11 -69t1.5 -60l-6 -475q-2 -98 9 -142.5t52 -54.5v-18h-327l-27 102h-6q-58 -73 -150 -107t-198 -34q-94 0 -164.5 23.5t-107 56.5t-58.5 78t-27.5 77t-5.5 66zM416 291q0 -35 16 -60t42 -37.5 t51 -18t50 -5.5t53 6.5t60 25t57 46.5t41.5 75t16.5 107v66q-28 -13 -44.5 -20t-34 -12t-28.5 -7t-41 -7t-57 -10q-26 -4 -45 -8t-47 -15t-45.5 -26t-31 -41t-13.5 -59z" />
<glyph unicode="&#x431;" horiz-adv-x="1290" d="M76 711q0 153 23.5 271.5t63.5 197t101.5 133t129.5 83t155 44.5q56 9 111 15.5t85.5 9t59 6.5t43 10t25.5 17.5t18 31.5h254q-5 -66 -24.5 -115t-54 -79t-73 -49t-93.5 -30.5t-103.5 -18t-114.5 -16.5t-115 -22q-52 -13 -89.5 -28.5t-81 -48t-72 -76.5t-50 -116.5 t-28.5 -166.5h6q39 136 157.5 225.5t295.5 89.5q223 0 364 -154t141 -405q0 -261 -148 -410t-398 -149q-588 0 -588 750zM406 500q0 -97 22 -165.5t59.5 -102.5t76.5 -48t83 -14q110 0 175 80t65 250q0 106 -22.5 182.5t-60 115t-76.5 55.5t-81 17q-34 0 -65.5 -9.5 t-64 -35.5t-56.5 -66t-39.5 -107t-15.5 -152z" />
<glyph unicode="&#x432;" horiz-adv-x="1198" d="M125 0v1040h620q30 0 49.5 -0.5t59.5 -5.5t67 -14t61 -27.5t55 -44.5t35.5 -67t14.5 -93q0 -100 -60.5 -165t-149.5 -78v-6q132 -30 189.5 -91t57.5 -182q0 -78 -27 -131t-80 -82t-118.5 -41t-155.5 -12h-618zM436 209h195q104 0 139 30.5t35 75.5q0 60 -37.5 91.5 t-140.5 31.5h-191v-229zM436 633h162q170 0 170 96q0 59 -43.5 80.5t-120.5 21.5h-168v-198z" />
<glyph unicode="&#x433;" horiz-adv-x="946" d="M125 0v1040h793v-209h-482v-831h-311z" />
<glyph unicode="&#x434;" horiz-adv-x="1382" d="M0 209h137q83 125 122.5 278.5t39.5 360.5v192h891v-831h172l-16 -479h-267v270h-796v-270h-267zM461 209h418v622h-293v-108q0 -286 -125 -514z" />
<glyph unicode="&#x435;" horiz-adv-x="1277" d="M76 522q0 132 43 238t121 175.5t184.5 106.5t234.5 37q103 0 187 -25t137.5 -64t94 -93.5t61.5 -106t34 -110t17 -97t6 -74.5v-7l2 -58h-799q0 -43 11.5 -86t37.5 -87.5t78 -72.5t123 -28q74 0 133 33t78 98h316q-95 -340 -541 -340q-28 0 -55.5 1.5t-70 8t-80.5 17.5 t-83 32t-82 49t-73 71t-60.5 96.5t-39.5 126.5t-15 159zM399 618h475q-2 64 -18.5 111.5t-39 73.5t-53.5 42t-56 20.5t-52 4.5q-66 0 -116.5 -24t-79 -63t-43.5 -80.5t-17 -84.5z" />
<glyph unicode="&#x436;" horiz-adv-x="1597" d="M-20 0l421 547l-395 493h342l291 -424h4v424h311v-424h4l291 424h342l-395 -493l422 -547h-361l-299 457h-4v-457h-311v457h-4l-299 -457h-360z" />
<glyph unicode="&#x437;" horiz-adv-x="1165" d="M45 348h295q14 -178 217 -178q41 0 76.5 6.5t68 20.5t51.5 41.5t19 64.5q0 135 -186 135h-121v195h129q71 0 114.5 26.5t43.5 83.5q0 46 -30.5 76t-73 40.5t-97.5 10.5q-21 0 -40.5 -2.5t-46.5 -12t-47 -26t-35 -48t-17 -74.5h-287q-1 70 17 127.5t48 95.5t74 66t87 43.5 t95.5 25t92 12t83.5 2.5q45 0 82 -1.5t91 -8.5t95.5 -18.5t86 -34.5t74 -53.5t48.5 -78t19 -106.5q0 -91 -50 -145.5t-151 -81.5v-6q222 -43 222 -256q0 -91 -37.5 -156t-109 -102t-163.5 -53.5t-213 -16.5q-113 0 -203 20.5t-162.5 64.5t-113.5 120.5t-45 181.5z" />
<glyph unicode="&#x438;" horiz-adv-x="1325" d="M125 0v1040h311v-675l426 675h330v-1040h-311v676l-424 -676h-332z" />
<glyph unicode="&#x439;" horiz-adv-x="1325" d="M125 0v1040h311v-675l426 675h330v-1040h-311v676l-424 -676h-332zM254 1434h227q0 -37 16 -64.5t37 -41t49.5 -21.5t44.5 -9.5t31 -1.5q72 0 126.5 34t50.5 104h229q-5 -41 -19 -78t-44 -75.5t-73.5 -66t-113 -45.5t-156.5 -18t-157.5 18t-114.5 46t-74.5 66.5t-43.5 76 t-15 76.5z" />
<glyph unicode="&#x43a;" horiz-adv-x="1122" d="M125 0v1040h311v-417h6l334 417h346l-428 -487l449 -553h-365l-336 455h-6v-455h-311z" />
<glyph unicode="&#x43b;" horiz-adv-x="1294" d="M27 -4v215q32 -4 51 -4q70 0 106.5 29.5t55.5 112.5t24 247l10 444h887v-1040h-311v831h-279l-4 -233q-2 -116 -14 -207t-30 -155.5t-48 -110.5t-61.5 -73t-77 -42.5t-88.5 -20.5t-101 -5q-59 0 -120 12z" />
<glyph unicode="&#x43c;" horiz-adv-x="1652" d="M125 0v1040h414l282 -731h2l283 731h414v-1040h-312v664l6 53h-6l-282 -717h-207l-283 717h-6l6 -53v-664h-311z" />
<glyph unicode="&#x43d;" horiz-adv-x="1255" d="M125 0v1040h311v-391h375v391h311v-1040h-311v440h-375v-440h-311z" />
<glyph unicode="&#x43e;" horiz-adv-x="1294" d="M76 522q0 119 31.5 215t85 159t127.5 105t154.5 60t170.5 18q124 0 226.5 -34.5t179.5 -101.5t120 -174.5t43 -246.5q0 -140 -43 -248.5t-120.5 -176t-180 -102t-225.5 -34.5t-225.5 34.5t-180 102t-120.5 176t-43 248.5zM399 522q0 -352 246 -352t246 352 q0 68 -10 123.5t-25 91t-38 61.5t-44 39.5t-47.5 21.5t-43.5 9.5t-38 1.5q-246 0 -246 -348z" />
<glyph unicode="&#x43f;" horiz-adv-x="1280" d="M125 0v1040h1022v-1040h-311v831h-400v-831h-311z" />
<glyph unicode="&#x440;" horiz-adv-x="1310" d="M125 -379v1419h293l-2 -125h6q132 164 336 164q219 0 346 -151t127 -410q0 -249 -129.5 -403t-349.5 -154q-24 0 -54.5 4.5t-79 17t-98 44.5t-84.5 79v-485h-311zM422 522q0 -71 13 -131.5t40.5 -111.5t76 -80t114.5 -29q65 0 113 29t75 80t40 111.5t13 131.5 q0 70 -11 126.5t-31 93.5t-43.5 63t-52 39.5t-53.5 19.5t-50 6q-32 0 -62 -8t-64 -31t-59.5 -60t-42 -101.5t-16.5 -147.5z" />
<glyph unicode="&#x441;" horiz-adv-x="1218" d="M76 518q0 80 14.5 153.5t54.5 150t102 131.5t165.5 90.5t236.5 35.5q102 0 184.5 -24.5t135.5 -64.5t89.5 -94.5t54 -109.5t22.5 -116h-299q-16 115 -68 157.5t-131 42.5q-27 0 -51.5 -4t-61 -23t-62 -51.5t-44.5 -97.5t-19 -153q0 -83 12.5 -147.5t34.5 -103t46 -64.5 t53 -37t48.5 -15t39.5 -4q58 0 100.5 24t64 61t31 72t9.5 66h307q-3 -54 -18.5 -107.5t-53 -114t-92.5 -105.5t-145.5 -75t-204.5 -30q-259 0 -407 144.5t-148 412.5z" />
<glyph unicode="&#x442;" horiz-adv-x="1054" d="M27 831v209h999v-209h-344v-831h-311v831h-344z" />
<glyph unicode="&#x443;" horiz-adv-x="1142" d="M8 1040h375l242 -678l186 678h332l-363 -1095q-39 -124 -67 -176q-92 -166 -299 -166q-120 0 -219 18v209q31 -14 100 -14q118 0 151 145l15 51z" />
<glyph unicode="&#x444;" horiz-adv-x="1769" d="M76 528q0 101 25 183t65 136.5t98 96t114.5 64t124 36t118.5 17.5t106 4v369h311v-369q118 2 215 -17.5t163.5 -52.5t117 -80t79.5 -95t47 -104t24 -100.5t6 -89.5q0 -81 -16 -153t-61 -146.5t-115.5 -128.5t-188 -89t-271.5 -38v-350h-311v350q-125 3 -226 27.5 t-167.5 60t-116 85.5t-76 97.5t-42 105t-19.5 97.5t-4 84zM399 537q0 -87 24 -154.5t60 -105.5t83 -61.5t89 -30.5t82 -5v676h-41q-132 0 -214.5 -83.5t-82.5 -235.5zM1028 180q65 -2 122.5 16t107.5 58t79 112.5t29 168.5q0 163 -87 243t-251 78v-676z" />
<glyph unicode="&#x445;" horiz-adv-x="1138" d="M0 0l389 539l-371 501h361l190 -323l193 323h358l-368 -501l387 -539h-359l-211 340l-211 -340h-358z" />
<glyph unicode="&#x446;" horiz-adv-x="1327" d="M125 0v1040h311v-831h389v831h312v-831h170l-19 -479h-264v270h-899z" />
<glyph unicode="&#x447;" horiz-adv-x="1165" d="M82 723v317h311v-303q0 -60 11 -83q29 -64 153 -64q98 0 164 8v442h311v-1040h-311v389q-68 -8 -229 -8q-104 0 -178 16t-118.5 42.5t-70.5 71.5t-34.5 94t-8.5 118z" />
<glyph unicode="&#x448;" horiz-adv-x="1867" d="M125 0v1040h311v-831h338v831h311v-831h338v831h312v-1040h-1610z" />
<glyph unicode="&#x449;" horiz-adv-x="1925" d="M125 0v1040h311v-831h338v831h311v-831h338v831h312v-831h170l-17 -479h-266v270h-1497z" />
<glyph unicode="&#x44a;" horiz-adv-x="1312" d="M27 831v209h581v-368h197q164 0 259 -40q191 -81 191 -313q0 -319 -381 -319h-577v831h-270zM608 209h142q88 0 135 27.5t47 93.5q0 133 -191 133h-133v-254z" />
<glyph unicode="&#x44b;" horiz-adv-x="1638" d="M125 0v1040h311v-368h197q154 0 244 -34q204 -78 204 -319q0 -83 -26 -144t-63.5 -93.5t-92.5 -52t-99 -24.5t-98 -5h-577zM436 209h142q180 0 180 121q0 133 -189 133h-133v-254zM1194 0v1040h311v-1040h-311z" />
<glyph unicode="&#x44c;" horiz-adv-x="1140" d="M125 0v1040h311v-368h197q164 0 259 -40q191 -81 191 -313q0 -319 -381 -319h-577zM436 209h142q88 0 135 27.5t47 93.5q0 133 -191 133h-133v-254z" />
<glyph unicode="&#x44d;" horiz-adv-x="1269" d="M70 393h307q5 -90 69.5 -156.5t176.5 -66.5q17 0 29 0.5t38.5 5.5t46 13.5t44.5 27.5t41.5 44.5t29 67t14.5 93.5h-360v209h360q0 28 -5 56t-20.5 62t-39.5 60t-67 43.5t-99 17.5q-114 0 -178 -56t-70 -146h-307q0 43 9.5 85.5t31.5 91t63 89t98 74t143.5 52.5t192.5 19 q41 0 76 -2t97 -14.5t111 -33.5t105.5 -63.5t94 -101t63 -150.5t25.5 -206q0 -87 -16.5 -160t-42.5 -125.5t-65 -95t-77 -69t-86 -46t-85 -29t-81 -15t-66.5 -6.5t-47.5 -1q-105 0 -190.5 19t-143.5 53t-101 76t-67 92.5t-36 96.5t-15 95z" />
<glyph unicode="&#x44e;" horiz-adv-x="1775" d="M125 0v1040h311v-391h131q7 66 31.5 127t70.5 116.5t109.5 96.5t154 65.5t197.5 24.5q125 0 226.5 -33t178.5 -99.5t119 -174.5t42 -250q0 -141 -42.5 -249.5t-119.5 -176t-180 -101.5t-228 -34q-142 0 -252 42.5t-174.5 113.5t-98.5 152t-40 171h-125v-440h-311z M885 522q0 -352 241 -352q246 0 246 352q0 68 -10 123.5t-25 91t-38 61.5t-44 39.5t-47.5 21.5t-43.5 9.5t-38 1.5q-29 0 -53.5 -4t-61.5 -23.5t-62.5 -54t-44.5 -103.5t-19 -163z" />
<glyph unicode="&#x44f;" horiz-adv-x="1202" d="M76 698q0 71 19 127.5t45.5 91t68 60t74 37.5t75.5 18.5t61 7t42 0.5h608v-1040h-311v360h-107l-207 -360h-352l264 375q-66 11 -116.5 36.5t-81 57t-49.5 72.5t-26 78.5t-7 78.5zM399 700q0 -131 189 -131h170v262h-164q-195 0 -195 -131z" />
<glyph unicode="&#x451;" horiz-adv-x="1275" d="M76 522q0 178 76.5 305.5t206.5 189.5t300 62q30 0 59.5 -2t86.5 -14t105 -33t103 -64.5t93.5 -102.5t64 -152.5t25.5 -208.5v-45h-797q0 -40 8 -79.5t27 -77.5t47 -66.5t71.5 -46t96.5 -17.5q74 0 133 33t78 98h316q-95 -340 -541 -340q-113 0 -204 26.5t-148 65.5 t-99 97t-62 106.5t-31.5 109.5t-13 91t-1.5 65zM197 1190v244h311v-244h-311zM399 618h473q-7 252 -217 252q-229 0 -256 -252zM774 1190v244h311v-244h-311z" />
<glyph unicode="&#x452;" horiz-adv-x="1310" d="M0 1149v164h162v121h311v-121h488v-164h-488v-262q145 151 352 151q138 0 215 -63.5t110.5 -202.5t33.5 -385q0 -104 -4.5 -183.5t-18 -163t-36.5 -143t-61.5 -114.5t-92 -89t-129 -53.5t-170.5 -19.5v209h33q30 0 54 12t40 36.5t28.5 51.5t19 68.5t10.5 75t5 82.5t1 80 t-0.5 79t-0.5 68q0 77 -2.5 132.5t-9 109.5t-19 88.5t-32.5 62.5t-49 40.5t-68 12.5q-92 0 -150.5 -71t-58.5 -213v-545h-311v1149h-162z" />
<glyph unicode="&#x453;" horiz-adv-x="946" d="M125 0v1040h793v-209h-482v-831h-311zM319 1163l142 271h327l-217 -271h-252z" />
<glyph unicode="&#x454;" horiz-adv-x="1245" d="M76 508q0 90 15 166t39.5 130.5t61 98.5t73 72t83 48.5t84 31t83 16.5t72 7t58.5 1q114 0 203.5 -23t144 -58.5t93 -85.5t55 -95.5t24.5 -97.5h-288q-11 74 -77.5 112.5t-154.5 38.5q-56 0 -100.5 -16t-71.5 -41t-44 -58t-23.5 -63.5t-6.5 -60.5h414v-209h-414 q0 -34 6.5 -66.5t23.5 -67t43 -60t70 -42t99 -16.5q192 0 233 160h297q-24 -102 -72.5 -175t-118.5 -114.5t-152.5 -60.5t-186.5 -19q-110 0 -200 24t-147.5 61t-100 90t-64.5 101t-34.5 105.5t-15.5 93t-3 72.5z" />
<glyph unicode="&#x455;" horiz-adv-x="1142" d="M61 328h320q8 -158 209 -158q63 0 113.5 28t50.5 83q0 28 -9 49.5t-30 36.5t-41.5 25t-57 18.5t-63 13t-70.5 10.5q-19 3 -28 4q-40 6 -69.5 12t-70.5 18t-70.5 27t-61 39.5t-51.5 55t-33 74.5t-13 96q0 24 3 47t15 56t31.5 61.5t56.5 58t85.5 50t122.5 33.5t165 13 q108 0 192 -21t134 -53t82.5 -77t44.5 -86.5t14 -87.5h-282q-2 25 -11 44.5t-18 31.5t-27.5 20.5t-28.5 12t-31.5 5.5t-25.5 2h-22q-176 0 -176 -90q0 -18 4.5 -33.5t11 -27.5t19.5 -22t23.5 -17t29.5 -13.5t31 -10t35.5 -8t34.5 -6t36.5 -5t34.5 -4.5q162 -25 233 -55 q174 -72 174 -263q0 -52 -11 -98t-44 -94.5t-86 -83t-144.5 -56.5t-211.5 -22q-241 0 -377 99t-142 268z" />
<glyph unicode="&#x456;" horiz-adv-x="569" d="M125 0v1040h311v-1040h-311zM125 1190v244h311v-244h-311z" />
<glyph unicode="&#x457;" horiz-adv-x="569" d="M-166 1190v244h311v-244h-311zM125 0v1040h311v-1040h-311zM412 1190v244h311v-244h-311z" />
<glyph unicode="&#x458;" horiz-adv-x="567" d="M-59 -170q20 -4 28 -4q36 0 63 5.5t43.5 18t26.5 24.5t14.5 32.5t5.5 35t1 38.5v1060h311v-1091q0 -68 -11.5 -122t-29 -89.5t-44.5 -61t-51.5 -38.5t-57.5 -20.5t-54.5 -9t-50.5 -1.5q-128 0 -194 14v209zM123 1190v244h311v-244h-311z" />
<glyph unicode="&#x459;" horiz-adv-x="1861" d="M27 -4v215q62 -11 105 2.5t68 41.5t39 85t18.5 112t6.5 144l10 444h887v-378h195h7q27 0 44.5 -0.5t54.5 -3.5t64 -8.5t65 -17.5t65.5 -28.5t57 -43t48 -59.5t30.5 -79.5t12 -102.5q0 -319 -379 -319h-575v834h-279l-4 -236q-1 -69 -4 -123t-11 -114.5t-21 -106t-34 -91 t-49.5 -76.5t-69 -56.5t-91 -37t-116 -11.5t-144.5 14zM1161 209h139q91 0 136 27.5t45 93.5q0 123 -189 123h-131v-244z" />
<glyph unicode="&#x45a;" horiz-adv-x="1826" d="M125 0v1040h311v-381h375v381h311v-381h195q32 0 53.5 -0.5t60.5 -4t67 -9t65.5 -17.5t64.5 -28.5t55 -43t45.5 -59t29 -78.5t11.5 -100q0 -319 -380 -319h-578v451h-375v-451h-311zM1122 209h140h26t30.5 2t36.5 6t33 13t30.5 21.5t19 32.5t8.5 46q0 121 -193 121h-131 v-242z" />
<glyph unicode="&#x45b;" horiz-adv-x="1296" d="M0 1149v164h162v121h311v-121h488v-164h-488v-262q46 52 97.5 85t103 46t82.5 16.5t69 3.5q39 0 73 -5t76 -19.5t74.5 -44.5t61 -75t44 -117t15.5 -165v-612h-311v561q0 39 -2 68t-12 69.5t-28 66.5t-52.5 45t-81.5 19q-49 0 -86.5 -17t-59 -47t-35.5 -60t-19.5 -67 t-7 -55.5t-1.5 -37.5v-545h-311v1149h-162z" />
<glyph unicode="&#x45c;" horiz-adv-x="1122" d="M125 0v1040h311v-417h6l334 417h346l-428 -487l449 -553h-365l-336 455h-6v-455h-311zM408 1163l141 271h328l-218 -271h-251z" />
<glyph unicode="&#x45e;" horiz-adv-x="1142" d="M8 1040h375l242 -678l186 678h332l-363 -1095q-39 -124 -67 -176q-92 -166 -299 -166q-120 0 -219 18v209q31 -14 100 -14q118 0 151 145l15 51zM166 1434h227q0 -37 16 -64.5t37 -41t49.5 -21.5t44.5 -9.5t31 -1.5q72 0 126.5 34t50.5 104h229q-5 -37 -8 -43 q-12 -45 -33 -80q-83 -136 -279 -154q-44 -6 -86 -6q-5 0 -41.5 2.5t-49.5 4t-47 7t-55 13t-50.5 22t-55.5 33.5q-43 37 -67 78q-27 48 -33 80q-6 21 -6 43z" />
<glyph unicode="&#x45f;" horiz-adv-x="1282" d="M125 0v1040h311v-831h402v831h311v-1040h-377v-379h-270v379h-377z" />
<glyph unicode="&#x460;" horiz-adv-x="1966" d="M86 680q0 180 33.5 297.5t107.5 220.5q187 261 549 264v-278q-185 -15 -270 -183q-31 -63 -43.5 -137t-11.5 -202q0 -128 13.5 -207t45.5 -136q28 -53 61 -73.5t82 -20.5q42 0 68 15t49 55q42 69 45 250v291h336v-291q-3 -176 45 -250q20 -41 46.5 -56.5t70.5 -13.5 q46 0 79.5 21t63.5 73q60 111 60 343q0 125 -13.5 199t-42.5 140q-88 168 -270 183v278q355 -3 549 -264q73 -105 107 -223t34 -295q0 -211 -45 -351.5t-141 -240.5q-73 -74 -151.5 -106.5t-182.5 -32.5q-167 3 -264 84q-90 77 -111 203h-4q-23 -122 -111 -203 q-104 -84 -264 -84q-106 2 -184.5 33.5t-149.5 105.5q-97 99 -141.5 238.5t-44.5 353.5z" />
<glyph unicode="&#x461;" horiz-adv-x="1638" d="M78 496q0 125 28 213.5t87 162.5q150 193 446 193v-209q-138 -15 -197 -131q-41 -84 -41 -244q-3 -171 45 -243q37 -68 111 -68q30 0 48.5 10.5t35.5 38.5q33 50 33 178v211h291v-211q0 -75 7 -113.5t25 -64.5q13 -28 32.5 -38.5t51.5 -10.5q68 0 111 68q45 78 45 243 q-3 159 -41 244q-62 116 -197 131v209q291 0 447 -193q58 -75 86.5 -163.5t28.5 -212.5q-3 -295 -160 -433q-111 -100 -285 -100q-132 0 -209 62q-72 59 -86 147h-4q-20 -91 -86 -147q-83 -62 -209 -62q-92 0 -160 23.5t-124 76.5q-84 71 -122 176.5t-38 256.5z" />
<glyph unicode="&#x462;" horiz-adv-x="1585" d="M27 1085v246h270v103h338v-103h369v-246h-369v-172h358q77 0 145.5 -12t138.5 -45t119.5 -84t81 -135t31.5 -193q0 -444 -518 -444h-694v1085h-270zM635 279h289q112 0 166.5 41t54.5 137q0 87 -53.5 132.5t-178.5 45.5h-278v-356z" />
<glyph unicode="&#x463;" horiz-adv-x="1312" d="M27 831v209h270v394h311v-394h307v-209h-307v-159h197q164 0 259 -40q191 -81 191 -313q0 -319 -381 -319h-577v831h-270zM608 209h142q88 0 135 27.5t47 93.5q0 133 -191 133h-133v-254z" />
<glyph unicode="&#x464;" horiz-adv-x="2158" d="M154 0v1434h338v-582h190q12 147 78.5 275.5t167.5 207.5q176 137 481 140q239 0 410 -101q96 -63 163 -165t80 -212h-352q-23 92 -111 150q-85 49 -208 49q-126 0 -209 -53q-66 -43 -103.5 -118.5t-42.5 -172.5h625v-262h-625q-1 -90 31.5 -166.5t87.5 -118.5 q78 -67 231 -67q137 -3 230 61q72 51 100 139h357q-25 -118 -97.5 -222.5t-171.5 -164.5q-149 -90 -413 -90q-164 0 -282.5 34t-207.5 111q-100 82 -156.5 207t-64.5 277h-188v-590h-338z" />
<glyph unicode="&#x465;" horiz-adv-x="1732" d="M125 0v1040h311v-409h133q11 91 50.5 176t103.5 143q138 126 410 129q215 0 344 -80q70 -48 117 -122t59 -158h-289q-14 60 -59 100q-63 51 -168 51q-127 0 -189 -71q-61 -64 -61 -168h413v-209h-413q-3 -101 47 -164q32 -49 78 -69.5t116 -18.5q119 -3 181 59 q38 38 53 101h297q-23 -97 -63.5 -162.5t-106.5 -112.5q-129 -92 -361 -92q-302 0 -446 170q-106 121 -115 289h-131v-422h-311z" />
<glyph unicode="&#x466;" horiz-adv-x="1556" d="M-20 0l626 1434h342l629 -1434h-367l-139 332h-125v-332h-340v332h-125l-137 -332h-364zM573 578h406l-201 501z" />
<glyph unicode="&#x467;" horiz-adv-x="1474" d="M-20 0l585 1040h344l586 -1040h-348l-158 297h-96v-297h-311v297h-97l-157 -297h-348zM553 461h369l-185 350z" />
<glyph unicode="&#x468;" horiz-adv-x="2170" d="M154 0v1434h338v-856h354l375 856h342l628 -1434h-366l-139 332h-125v-332h-340v332h-125l-138 -332h-364l145 332h-247v-332h-338zM1188 578h405l-200 501z" />
<glyph unicode="&#x469;" horiz-adv-x="2007" d="M125 0v1040h311v-579h336l326 579h344l586 -1040h-349l-157 297h-97v-297h-311v297h-96l-158 -297h-348l168 297h-244v-297h-311zM1085 461h369l-184 350z" />
<glyph unicode="&#x46a;" horiz-adv-x="1925" d="M-20 0l638 795l-466 639h1622l-467 -639l639 -795h-410l-397 526h-6v-526h-340v526h-7l-397 -526h-409zM705 1188l258 -389l258 389h-516z" />
<glyph unicode="&#x46b;" horiz-adv-x="1466" d="M-20 0l483 606l-336 434h1212l-335 -434l483 -606h-348l-246 348h-4v-348h-311v348h-5l-245 -348h-348zM580 831l153 -225l154 225h-307z" />
<glyph unicode="&#x46c;" horiz-adv-x="2539" d="M154 0v1434h338v-543h671l-397 543h1622l-467 -639l639 -795h-410l-397 526h-6v-526h-340v526h-6l-397 -526h-410l539 645h-641v-645h-338zM1319 1188l258 -389l258 389h-516z" />
<glyph unicode="&#x46d;" horiz-adv-x="2007" d="M125 0v1040h311v-370h518l-286 370h1212l-336 -434l484 -606h-349l-245 348h-4v-348h-312v348h-4l-246 -348h-327l403 506h-508v-506h-311zM1120 831l154 -225l153 225h-307z" />
<glyph unicode="&#x46e;" horiz-adv-x="1486" d="M74 -51q0 77 28 144t82 110q92 76 281 76h240q96 0 144 6.5t83 23.5q88 40 88 127q-3 87 -82 135q-63 29 -164 29h-203v264h168q97 0 156 27q80 39 80 135q-3 40 -17 72q-20 33 -55 57q-71 41 -207 41q-120 0 -180 -45q-42 -30 -61.5 -72t-20.5 -110h-330 q6 118 29.5 188.5t69.5 130.5q43 55 113 97.5t151 60.5l-236 356h308l194 -338l137 211q47 73 111 107q61 28 139 28q14 -1 55 -4t64 -4v-176h-33q-42 0 -82 -14q-35 -18 -69 -58l-82 -106q109 -15 209 -80q157 -110 157 -299q0 -161 -116 -248q-69 -53 -156 -65v-4 q120 -23 190 -72q127 -94 127 -266q0 -217 -190 -328q-81 -47 -182 -68q-102 -18 -293 -18h-178q-77 0 -99 -14q-32 -14 -32 -68q0 -40 39 -63q34 -19 102 -19h547v-213h-584q-148 0 -235 27.5t-138 89.5q-70 83 -67 209z" />
<glyph unicode="&#x46f;" horiz-adv-x="1148" d="M45 -84q0 151 92 225q77 68 234 68h168q118 0 153 16q61 22 64 90q0 60 -60 99q-46 24 -127 24h-120v195h129q74 0 115.5 28t41.5 84q0 62 -57 99q-50 26 -135 26q-110 -3 -158 -57q-37 -40 -37 -106h-287q-1 77 29 148t86 122q67 57 141 76l-258 381h287l213 -355 l137 228q47 79 111 110q59 25 131 25q18 0 59 -3.5t52 -4.5v-160h-33q-61 -3 -80 -10q-42 -13 -70 -62l-88 -139q93 -18 154 -62q123 -89 123 -223q0 -122 -88 -180q-58 -34 -113 -47v-6q78 -17 133 -56q88 -74 88 -200q-3 -159 -160 -236q-58 -30 -129.5 -41.5 t-199.5 -11.5h-99q-77 0 -98 -16q-33 -20 -33 -66q0 -40 39 -63q28 -15 103 -19h454v-213h-491q-141 0 -221.5 25t-130.5 82q-64 73 -64 186z" />
<glyph unicode="&#x470;" horiz-adv-x="1761" d="M88 1063v371h336v-357q0 -187 41 -260q35 -67 100 -102t150 -33v752h336v-752q83 -2 148 33t101 102q38 78 41 260v357h336v-371q0 -236 -45 -338q-43 -104 -127 -176q-80 -68 -199 -106.5t-255 -39.5v-403h-336v403q-139 1 -258 39.5t-197 106.5q-84 69 -131 176 q-44 106 -41 338z" />
<glyph unicode="&#x471;" horiz-adv-x="1720" d="M115 649v391h311v-366q-3 -190 18 -266q20 -71 68 -119q73 -83 195 -80v1225h311v-1225q61 0 117.5 25.5t91.5 68.5q64 84 67 295q0 147 -37 289q-30 94 -61 153l311 25q45 -68 68 -141q43 -147 43 -312q-2 -215 -72 -353.5t-219 -203.5q-118 -55 -309 -55v-377h-311v377 q-198 0 -316 55q-136 62 -207 183q-69 120 -69 411z" />
<glyph unicode="&#x472;" horiz-adv-x="2174" d="M20 422v409h369q13 171 88 315t191 222q159 107 419 107q258 0 420 -107q113 -78 187.5 -221.5t91.5 -315.5h368v-409h-245v205h-123q-3 -168 -78 -324q-74 -154 -201 -237q-152 -105 -420 -105q-273 0 -419 105q-129 82 -203 237q-73 152 -76 324h-123v-205h-246z M733 627q4 -86 35.5 -168.5t75.5 -126.5q88 -94 243 -94q156 0 244 94q52 52 80.5 132t30.5 163h-709zM733 831h709q-6 74 -36.5 150t-74.5 123q-98 92 -244 92q-157 -3 -243 -92q-42 -43 -72.5 -121t-38.5 -152z" />
<glyph unicode="&#x473;" horiz-adv-x="1867" d="M20 246v368h349q12 111 64 205.5t132 155.5q142 104 369 104q224 0 369 -104q79 -61 131 -155.5t65 -205.5h348v-368h-245v205h-101q-8 -117 -60.5 -220.5t-137.5 -164.5q-137 -103 -369 -103q-237 0 -369 103q-86 61 -139 164.5t-59 220.5h-101v-205h-246zM690 451 q0 -116 58 -189q67 -92 186 -92q121 0 188 92q53 75 56 189h-488zM692 614h484q-10 94 -54 164q-35 48 -78.5 69.5t-109.5 22.5q-65 0 -109 -22t-77 -70q-53 -74 -56 -164z" />
<glyph unicode="&#x474;" horiz-adv-x="1433" d="M-18 1434h387l290 -1024l164 643q24 99 53.5 166.5t78.5 125.5t125 86.5t180 28.5q96 0 194 -26v-279q-62 21 -133 21q-145 0 -197 -172l-299 -1004h-358z" />
<glyph unicode="&#x475;" horiz-adv-x="1167" d="M-18 1040h337l216 -729l102 371q57 210 142 293.5t241 83.5q82 0 168 -19v-209q-33 15 -86 15q-33 0 -59 -11t-41.5 -24.5t-30 -41.5t-20.5 -45.5t-17 -53.5l-227 -670h-345z" />
<glyph unicode="&#x476;" horiz-adv-x="1515" d="M-18 1434h387l329 -983l176 632q29 107 62.5 171.5t81.5 109.5q105 96 280 96q90 0 197 -26v-279q-86 21 -121 21q-71 0 -112 -41q-20 -19 -33.5 -43t-30.5 -74l-340 -1018h-360zM121 1839h328l141 -270h-252zM592 1839h328l141 -270h-252z" />
<glyph unicode="&#x477;" horiz-adv-x="1134" d="M-16 1040h335l216 -729l157 533q32 110 113 166q68 43 190 43q49 0 119 -13v-209h-33q-52 -3 -80 -28q-23 -20 -36 -66l-258 -737h-345zM-10 1434h325l142 -271h-252zM430 1434h328l141 -271h-252z" />
<glyph unicode="&#x478;" horiz-adv-x="2744" d="M88 717q0 209 82 384t223 267q167 107 420 107q262 -3 424 -107q140 -93 219.5 -266.5t81.5 -384.5q-2 -212 -81.5 -385.5t-219.5 -265.5q-155 -105 -424 -105q-270 3 -420 105q-143 90 -225 264q-83 177 -80 387zM453 717q-1 -131 29 -230.5t85 -154.5q88 -94 246 -94 q156 0 244 94q117 117 117 385q0 261 -117 387q-98 92 -244 92q-73 0 -138.5 -24t-107.5 -68q-54 -54 -84 -156t-30 -231zM1612 1040h375l241 -678l187 678h331l-362 -1093q-34 -100 -55 -144q-20 -41 -48 -77q-53 -64 -120.5 -92.5t-182.5 -28.5q-77 0 -180 18v209 q44 -14 84 -14q131 0 170 145l12 49z" />
<glyph unicode="&#x479;" horiz-adv-x="2334" d="M80 520q0 128 45 241t125 187q143 131 399 131q250 0 400 -131q79 -74 124.5 -187t45.5 -241q0 -129 -45.5 -242t-124.5 -186q-141 -129 -400 -129q-264 0 -399 129q-80 73 -125.5 186t-44.5 242zM403 520q0 -178 60 -258q63 -92 186 -92q118 0 187 92q56 79 59 258 q0 172 -59 258q-71 89 -187 92q-119 0 -186 -92q-60 -83 -60 -258zM1202 1040h375l242 -678l186 678h332l-363 -1093q-40 -115 -57 -148t-45 -73q-52 -63 -119.5 -91.5t-177.5 -29.5q-80 0 -186 18v209q44 -14 84 -14q66 2 104.5 33t62.5 112l15 49z" />
<glyph unicode="&#x47a;" horiz-adv-x="1802" d="M86 717q0 131 40 258.5t112 220.5q87 115 219.5 185.5t294.5 82.5v154h299v-154q161 -12 293.5 -82.5t220.5 -185.5q70 -95 110.5 -222.5t40.5 -256.5q0 -132 -40.5 -259t-110.5 -220q-87 -117 -219 -186t-295 -81v-153h-299v153q-164 12 -296 81t-218 186 q-72 92 -112 218.5t-40 260.5zM451 717q0 -63 12 -132t31 -112q73 -176 258 -215v141h299v-141q182 39 258 215q18 44 30.5 113.5t12.5 130.5q0 60 -12.5 129t-30.5 115q-76 170 -258 215v-142h-299v142q-184 -44 -258 -215q-19 -44 -31 -113t-12 -131z" />
<glyph unicode="&#x47b;" horiz-adv-x="1564" d="M78 528q0 152 58 266t163 183q66 43 159 66.5t189 21.5v106h271v-106q94 2 187 -21.5t161 -66.5q104 -70 162.5 -184.5t58.5 -264.5q0 -322 -238 -469q-134 -86 -331 -86v-106h-271v106q-201 0 -332 86q-237 145 -237 469zM401 518q0 -141 52 -217q69 -112 194 -121v82 h271v-82q122 10 194 121q51 83 51 217q0 131 -51 217q-68 108 -194 121v-82h-271v82q-125 -13 -194 -121q-52 -79 -52 -217z" />
<glyph unicode="&#x47c;" horiz-adv-x="1966" d="M88 680q-1 160 32.5 267t108.5 198q180 226 549 235v-278q-188 -20 -270 -154q-30 -51 -42.5 -112.5t-12.5 -173.5q0 -128 13.5 -207t45.5 -136q28 -53 61 -73.5t82 -20.5q42 0 68 15t49 55q42 69 45 250v291h336v-291q-3 -176 45 -250q20 -41 46.5 -56.5t70.5 -13.5 q46 0 79.5 21t63.5 73q31 57 45 136.5t15 206.5q0 108 -13.5 169.5t-42.5 116.5q-84 133 -270 154v278q366 -9 549 -235q72 -92 106.5 -199.5t34.5 -265.5q0 -208 -44.5 -348.5t-141.5 -243.5q-73 -74 -151.5 -106.5t-182.5 -32.5q-163 0 -264 84q-90 77 -111 203h-4 q-23 -122 -111 -203q-100 -81 -264 -84q-105 0 -184 32.5t-150 106.5q-98 103 -142 243t-44 349zM469 1569q19 124 88 219t180 141q105 42 248 45q115 0 196.5 -31t155.5 -98q21 -21 43 -49q31 -35 50 -45q26 -20 83 -18h70v-164h-86q-98 -3 -160 47q-22 15 -65 67 q-11 13 -23 28.5t-19 24.5t-11 13q-88 82 -234 82q-155 -3 -237 -82q-73 -73 -86 -180h-193zM760 1487q0 75 45 143q63 90 180 90q114 0 180 -90q42 -69 45 -143h-143q0 56 -20 92q-23 36 -62 39q-41 -3 -61 -39q-24 -38 -21 -92h-143z" />
<glyph unicode="&#x47d;" horiz-adv-x="1638" d="M78 496q0 118 28 200t87 150q75 87 189.5 132.5t256.5 45.5v-209q-139 -15 -197 -117q-23 -37 -32 -84.5t-9 -132.5q0 -175 45 -243q37 -68 111 -68q30 0 48.5 10.5t35.5 38.5q33 50 33 178v211h291v-211q0 -75 7 -113.5t25 -64.5q13 -28 32.5 -38.5t51.5 -10.5 q68 0 111 68q45 78 45 243q0 143 -41 217q-61 102 -197 117v209q289 0 447 -178q58 -68 86 -150t29 -200q0 -292 -160 -433q-58 -53 -126 -75.5t-159 -24.5q-132 0 -209 62q-72 59 -86 147h-4q-20 -91 -86 -147q-83 -62 -209 -62q-92 0 -160 23.5t-124 76.5 q-84 71 -122 176.5t-38 256.5zM311 1225q19 126 87 223.5t173 144.5q106 45 240 45q119 0 202.5 -30t149.5 -97q10 -12 30 -37.5t35.5 -43t26.5 -23.5q23 -18 84 -18h70v-164h-86q-54 0 -88 11t-64 36q-28 20 -67 71q-30 44 -57 74q-87 78 -236 78q-147 0 -229 -82 q-72 -72 -86 -188h-185zM594 1122q0 88 45 156q59 95 180 98q118 -3 180 -98q42 -73 45 -156h-143q0 67 -18 107q-23 45 -64 45q-43 0 -63 -45q-23 -44 -19 -107h-143z" />
<glyph unicode="&#x47e;" horiz-adv-x="1966" d="M86 680q0 180 33.5 297.5t107.5 220.5q187 261 549 264v-278q-185 -15 -270 -183q-31 -63 -43.5 -137t-11.5 -202q0 -128 13.5 -207t45.5 -136q28 -53 61 -73.5t82 -20.5q42 0 68 15t49 55q42 69 45 250v291h336v-291q-3 -176 45 -250q20 -41 46.5 -56.5t70.5 -13.5 q46 0 79.5 21t63.5 73q60 111 60 343q0 125 -13.5 199t-42.5 140q-88 168 -270 183v278q355 -3 549 -264q73 -105 107 -223t34 -295q0 -211 -45 -351.5t-141 -240.5q-73 -74 -151.5 -106.5t-182.5 -32.5q-167 3 -264 84q-90 77 -111 203h-4q-23 -122 -111 -203 q-104 -84 -264 -84q-106 2 -184.5 33.5t-149.5 105.5q-97 99 -141.5 238.5t-44.5 353.5zM590 1663v176h786v-176h-262v-94h-262v94h-262z" />
<glyph unicode="&#x47f;" horiz-adv-x="1638" d="M78 496q0 125 28 213.5t87 162.5q150 193 446 193v-209q-138 -15 -197 -131q-41 -84 -41 -244q-3 -171 45 -243q37 -68 111 -68q30 0 48.5 10.5t35.5 38.5q33 50 33 178v211h291v-211q0 -75 7 -113.5t25 -64.5q13 -28 32.5 -38.5t51.5 -10.5q68 0 111 68q45 78 45 243 q-3 159 -41 244q-62 116 -197 131v209q291 0 447 -193q58 -75 86.5 -163.5t28.5 -212.5q-3 -295 -160 -433q-111 -100 -285 -100q-132 0 -209 62q-72 59 -86 147h-4q-20 -91 -86 -147q-83 -62 -209 -62q-92 0 -160 23.5t-124 76.5q-84 71 -122 176.5t-38 256.5zM426 1257 v177h786v-177h-270v-94h-246v94h-270z" />
<glyph unicode="&#x480;" horiz-adv-x="1474" d="M88 690q0 399 193 592t499 193q308 0 471 -150q164 -147 176 -379h-331q-37 250 -299 250q-163 0 -254 -123.5t-90 -370.5q0 -221 94 -342.5t260 -121.5q121 0 193.5 51t91.5 141h335v-752h-335v383h-5q-94 -100 -294 -100q-352 0 -529.5 188t-175.5 541z" />
<glyph unicode="&#x481;" horiz-adv-x="1218" d="M78 518q-2 262 144.5 411.5t428.5 149.5q216 0 340.5 -107.5t145.5 -301.5h-299q-13 104 -62 152t-137 48q-117 0 -177.5 -82.5t-60.5 -246.5q0 -183 61.5 -277t172.5 -94q89 0 145 60t60 163h307v-715h-307v355h-4q-72 -72 -209 -72q-255 0 -402 147.5t-147 409.5z" />
<glyph unicode="&#x482;" horiz-adv-x="909" d="M51 113l96 163l170 -102l89 148l-173 104l97 164l170 -103l137 238l186 -107l-137 -237l172 -102l-96 -168l-172 102l-86 -145l172 -101l-96 -168l-172 103l-144 -246l-186 106l143 248z" />
<glyph unicode="&#x483;" horiz-adv-x="4" d="M-1247 1217v299h655v122h205v-299h-655v-122h-205z" />
<glyph unicode="&#x484;" horiz-adv-x="4" d="M-915 1554q0 50 36 105q18 25 54 61h213q-44 -44 -62 -69q-37 -56 -37 -97q0 -35 45 -98q58 -78 58 -139q0 -58 -37 -105q-24 -41 -53 -61h-213q34 25 61 70q37 49 37 96q0 39 -45 98q-57 78 -57 139z" />
<glyph unicode="&#x485;" horiz-adv-x="4" d="M-831 1460q88 38 142 53t105 15q98 0 150.5 -51.5t52.5 -130.5q0 -58 -37.5 -105.5t-109.5 -77.5h-209v6q49 28 65.5 51t16.5 56q0 63 -64 63q-38 -4 -72 -22z" />
<glyph unicode="&#x486;" horiz-adv-x="4" d="M-831 1346q0 79 53 130.5t149 51.5q54 0 107.5 -15t140.5 -53l-41 -143q-39 22 -72 22q-30 0 -46.5 -16.5t-16.5 -46.5q0 -32 17 -55.5t65 -51.5v-6h-209q-71 30 -108 77.5t-39 105.5z" />
<glyph unicode="&#x48e;" horiz-adv-x="1419" d="M154 0v1434h667q54 0 98 -3.5t104.5 -15t116 -39.5t99.5 -71q123 -116 123 -336q0 -254 -172 -383l153 -168l-165 -142l-201 226q-68 -8 -164 -8h-321v-494h-338zM492 772h272l-117 123l139 119l166 -183q45 57 45 138q0 89 -53 139q-51 47 -188 47h-264v-383z" />
<glyph unicode="&#x48f;" horiz-adv-x="1310" d="M125 -379v1419h293l-2 -125h6q132 164 336 164q105 0 190.5 -33t155.5 -118q127 -160 127 -410q0 -109 -24 -204t-91 -185l164 -162l-152 -151l-182 186q-84 -41 -194 -41q-112 0 -207 53q-68 41 -109 92v-485h-311zM422 522q0 -158 57 -250q34 -55 78.5 -78.5 t108.5 -23.5q61 0 112 31l-194 188l129 129l172 -172q22 76 22 176q0 156 -57 246q-66 102 -184 102q-121 0 -187 -102q-57 -86 -57 -246z" />
<glyph unicode="&#x490;" horiz-adv-x="1140" d="M154 0v1434h645v323h297l16 -602h-620v-1155h-338z" />
<glyph unicode="&#x491;" horiz-adv-x="946" d="M125 0v1040h549v273h227l17 -488h-482v-825h-311z" />
<glyph unicode="&#x492;" horiz-adv-x="1191" d="M0 549v278h205v607h958v-279h-620v-328h450v-278h-450v-549h-338v549h-205z" />
<glyph unicode="&#x493;" horiz-adv-x="962" d="M-23 410v184h164v446h793v-209h-481v-237h286v-184h-286v-410h-312v410h-164z" />
<glyph unicode="&#x494;" horiz-adv-x="1433" d="M154 0v1434h1058v-279h-720v-344q163 14 272 14q43 0 77 -2t100 -14t117 -34t111.5 -68t100.5 -108.5t67 -162t27 -223.5q0 -126 -23.5 -232t-62.5 -180.5t-93.5 -132.5t-113 -93t-125 -57.5t-124.5 -31t-117 -8.5q-60 0 -162 26v279q91 -27 145 -27q151 0 244.5 108.5 t93.5 334.5q0 67 -11.5 120.5t-30.5 89.5t-47 62t-55 40.5t-61.5 23t-61 10.5t-57.5 2q-62 0 -210 -15v-532h-338z" />
<glyph unicode="&#x495;" horiz-adv-x="1107" d="M125 0v1040h793v-209h-482v-202h119q25 0 43 -0.5t60 -5t74.5 -12t78.5 -24t80.5 -39.5t71.5 -60t61 -82.5t39.5 -110t15.5 -141.5q0 -42 -3 -80.5t-15 -94.5t-32 -102.5t-58.5 -95.5t-90.5 -83t-131.5 -55.5t-177.5 -21.5v209h33q154 0 154 297q0 77 -16 134.5t-38 86.5 t-52.5 46.5t-52 21.5t-44.5 4h-119v-420h-311z" />
<glyph unicode="&#x496;" horiz-adv-x="2048" d="M-18 0l577 768l-561 666h399l439 -584h6v584h338v-584h6l438 584h399l-561 -666l369 -489h237l-14 -603h-297v324h-127l-444 649h-6v-649h-338v649h-6l-445 -649h-409z" />
<glyph unicode="&#x497;" horiz-adv-x="1593" d="M-20 0l421 547l-395 493h342l291 -424h4v424h311v-424h4l291 424h342l-395 -493l260 -338h158l-19 -479h-264v270h-74l-299 457h-4v-457h-311v457h-4l-299 -457h-360z" />
<glyph unicode="&#x498;" horiz-adv-x="1497" d="M72 494h327q10 -256 338 -256q85 0 146 17.5t90.5 47t42 59.5t12.5 64q0 174 -246 174h-202v264h168q235 0 235 160q0 41 -16.5 73t-46.5 49.5t-57.5 28.5t-65.5 15t-54 5t-38 1q-26 0 -45 -1.5t-53 -7.5t-58.5 -21t-49.5 -38.5t-40 -64.5t-17 -94h-329q8 142 55 241.5 t131 157t191.5 82.5t250.5 25q100 0 187 -12.5t165.5 -42.5t134 -75.5t88 -115.5t32.5 -158q0 -80 -27.5 -141.5t-72 -96t-87 -52.5t-86.5 -25v-4q158 -32 238 -118t80 -245q0 -69 -18.5 -127.5t-47.5 -99t-71.5 -73.5t-84 -53t-91 -35t-87.5 -21.5t-78 -10.5v-432h-297v426 q-272 17 -403 151.5t-143 379.5z" />
<glyph unicode="&#x499;" horiz-adv-x="1165" d="M45 348h295q16 -178 227 -178q54 0 94 11t60.5 26t32.5 35.5t15 34t3 26.5q0 135 -186 135h-121v195h129q71 0 114.5 26.5t43.5 83.5q0 46 -30.5 76t-73 40.5t-97.5 10.5q-21 0 -40.5 -2.5t-46.5 -12t-47 -26t-35 -48t-17 -74.5h-287q-1 70 17 127.5t48 95.5t74 66 t87 43.5t95.5 25t92 12t83.5 2.5q45 0 82 -1.5t91 -8.5t95.5 -18.5t86 -34.5t74 -53.5t48.5 -78t19 -106.5q0 -91 -50 -145.5t-151 -81.5v-6q222 -43 222 -256q0 -139 -108.5 -231t-270.5 -97v-340h-271v340q-91 7 -162 35.5t-113.5 68t-70 91t-38.5 97.5t-13 95z" />
<glyph unicode="&#x49a;" horiz-adv-x="1454" d="M154 0v1434h338v-603h4l491 603h397l-575 -656l389 -499h232l-15 -603h-297v324h-114l-508 700h-4v-700h-338z" />
<glyph unicode="&#x49b;" horiz-adv-x="1155" d="M125 0v1040h311v-417h6l334 417h346l-428 -487l279 -344h157l-18 -479h-264v270h-70l-336 455h-6v-455h-311z" />
<glyph unicode="&#x49c;" horiz-adv-x="1665" d="M154 0v1434h338v-529h163v275h205v-275l395 529h398l-523 -656l556 -778h-414l-412 627v-336h-205v336h-163v-627h-338z" />
<glyph unicode="&#x49d;" horiz-adv-x="1396" d="M125 0v1040h311v-409h144v237h184v-237l305 409h328l-363 -487l383 -553h-358l-295 446v-258h-184v258h-144v-446h-311z" />
<glyph unicode="&#x49e;" horiz-adv-x="1443" d="M0 1135v176h201v123h338v-123h204v-176h-204v-304h4l491 603h398l-576 -656l608 -778h-413l-508 700h-4v-700h-338v1135h-201z" />
<glyph unicode="&#x49f;" horiz-adv-x="1159" d="M0 1149v164h162v121h311v-121h488v-164h-488v-526h6l334 417h346l-428 -487l449 -553h-365l-336 455h-6v-455h-311v1149h-162z" />
<glyph unicode="&#x4a0;" horiz-adv-x="1808" d="M145 1171v263h756v-603h4l492 603h397l-575 -656l608 -778h-414l-508 700h-4v-700h-338v1171h-418z" />
<glyph unicode="&#x4a1;" horiz-adv-x="1259" d="M27 844v196h546v-417h7l333 417h347l-429 -487l449 -553h-365l-335 455h-7v-455h-311v844h-235z" />
<glyph unicode="&#x4a2;" horiz-adv-x="1576" d="M154 0v1434h338v-539h520v539h338v-1155h202l-14 -603h-297v324h-229v616h-520v-616h-338z" />
<glyph unicode="&#x4a3;" horiz-adv-x="1312" d="M125 0v1040h311v-391h375v391h311v-831h170l-18 -479h-264v270h-199v440h-375v-440h-311z" />
<glyph unicode="&#x4a4;" horiz-adv-x="1998" d="M154 0v1434h338v-539h520v539h958v-279h-620v-1155h-338v616h-520v-616h-338z" />
<glyph unicode="&#x4a5;" horiz-adv-x="1632" d="M125 0v1040h311v-391h375v391h793v-209h-482v-831h-311v440h-375v-440h-311z" />
<glyph unicode="&#x4a6;" horiz-adv-x="2318" d="M154 0v1434h1216v-623q163 14 272 14q32 0 57 -1t73 -7t86.5 -16.5t89 -32t89.5 -51.5t79.5 -77t67 -106t43 -141.5t16.5 -179.5q0 -126 -23.5 -232t-62.5 -180.5t-94 -132.5t-113.5 -93t-125 -57.5t-124.5 -31t-117 -8.5q-60 0 -162 26v279q91 -27 146 -27 q151 0 244.5 108.5t93.5 334.5q0 67 -11.5 120.5t-30.5 89.5t-47 62t-55 40.5t-61.5 23t-61 10.5t-57.5 2q-63 0 -211 -15v-532h-338v1155h-540v-1155h-338z" />
<glyph unicode="&#x4a7;" horiz-adv-x="1847" d="M125 0v1040h1022v-411h119q48 0 84 -2.5t88.5 -11.5t100.5 -31.5t89 -57.5q78 -66 120 -167.5t42 -223.5q0 -123 -41 -230t-111 -171q-68 -62 -155 -87.5t-201 -25.5v209h33q75 0 115 72q38 70 38 225q0 132 -43 205q-54 88 -159 88h-119v-420h-311v831h-400v-831h-311z " />
<glyph unicode="&#x4a8;" horiz-adv-x="1970" d="M86 725q0 172 50.5 324t146.5 249q53 55 114.5 92t128.5 54.5t126 24t130 6.5q12 0 80 -5v-278q-36 4 -57 4q-88 0 -155 -29t-118 -102q-81 -116 -81 -340q0 -233 139 -365q62 -61 154.5 -93.5t193.5 -28.5q-79 93 -131 211q-66 155 -66 301q0 246 133 399 q164 184 453 184q129 0 238 -36t194 -136q125 -150 125 -399q0 -315 -178 -512q-87 -100 -238 -174q40 -37 95 -51q77 -25 145 -25q109 0 221 41v-258q-148 -41 -299 -41q-166 0 -319 90q-99 59 -176 145q-124 -18 -197 -18q-371 0 -580 162q-35 27 -67 59t-71.5 87.5 t-67.5 118t-47 151.5t-19 188zM1106 758q0 -147 55 -277q41 -100 121 -205q98 52 158 150q80 128 80 324q0 127 -37 198q-52 107 -160 107q-99 0 -160 -76q-57 -75 -57 -221z" />
<glyph unicode="&#x4a9;" horiz-adv-x="1548" d="M78 532q0 265 149 414q133 133 355 133q23 0 73 -4v-209q-4 2 -14 2h-12q-112 0 -174 -94q-54 -85 -54 -237q0 -194 91 -285q39 -41 102 -65t139 -17q-49 59 -86 160q-41 115 -41 223q0 189 94 295q112 131 330 131q102 0 181.5 -28t142.5 -107q92 -119 92 -320 q0 -232 -123 -366q-93 -93 -207 -135q46 -36 84 -46q54 -14 115 -14q102 0 192 37v-209q-92 -37 -219 -37q-141 0 -260 58q-115 56 -192 153q-89 -7 -155.5 -7t-145.5 10.5t-149 41.5t-130 82q-73 62 -125.5 170t-52.5 270zM868 571q0 -95 29 -190q36 -102 84 -170 q56 33 96 104q45 85 45 232q0 91 -20 145q-14 42 -37 60t-64 18q-60 0 -96 -49q-37 -49 -37 -150z" />
<glyph unicode="&#x4aa;" horiz-adv-x="1497" d="M86 690q0 38 1.5 73.5t9 95.5t20.5 112.5t38.5 117t59.5 117t87 104t118.5 87t157 57t198.5 21.5q146 0 261.5 -35.5t184.5 -89.5t115 -127.5t64.5 -140t21.5 -136.5h-331q-34 250 -299 250q-23 0 -43.5 -2t-57 -12.5t-66.5 -29t-64 -55.5t-57 -87.5t-38.5 -130 t-15.5 -177.5q0 -208 92.5 -336t259.5 -128q64 0 115 18t82.5 45.5t54.5 65t33.5 70.5t15.5 69h336q-16 -130 -62.5 -231.5t-115 -164.5t-148 -98.5t-170.5 -44.5v-430h-297v436q-30 3 -58.5 7.5t-88.5 24t-110 47.5t-109 83.5t-99.5 127t-68 182.5t-27.5 245z" />
<glyph unicode="&#x4ab;" horiz-adv-x="1218" d="M76 518q0 80 14.5 153.5t54.5 150t102 131.5t165.5 90.5t236.5 35.5q102 0 184.5 -24.5t135.5 -64.5t89.5 -94.5t54 -109.5t22.5 -116h-299q-16 115 -68 157.5t-131 42.5q-27 0 -51.5 -4t-61 -23t-62 -51.5t-44.5 -97.5t-19 -153q0 -83 12.5 -147.5t34.5 -103t46 -64.5 t53 -37t48.5 -15t39.5 -4q58 0 100.5 24t64 61t31 72t9.5 66h307q-6 -76 -32.5 -145t-73 -128.5t-120 -100t-165.5 -52.5v-346h-271v354q-174 18 -290.5 169t-116.5 374z" />
<glyph unicode="&#x4ac;" horiz-adv-x="1259" d="M27 1155v279h1204v-279h-432v-876h202l-14 -603h-297v324h-229v1155h-434z" />
<glyph unicode="&#x4ad;" horiz-adv-x="1054" d="M27 831v209h999v-209h-344v-622h170l-18 -479h-265v270h-198v831h-344z" />
<glyph unicode="&#x4ae;" horiz-adv-x="1320" d="M-18 1434h385l303 -621l303 621h368l-501 -893v-541h-340v541z" />
<glyph unicode="&#x4af;" horiz-adv-x="1067" d="M-18 1040h337l216 -727l215 727h337l-397 -1020v-399h-311v399z" />
<glyph unicode="&#x4b0;" horiz-adv-x="1320" d="M-18 1434h385l303 -621l303 621h368l-501 -893v-90h286v-205h-286v-246h-340v246h-287v205h287v90z" />
<glyph unicode="&#x4b1;" horiz-adv-x="1067" d="M-18 1040h337l216 -727l215 727h337l-397 -1020v-20h246v-184h-246v-195h-311v195h-246v184h246v20z" />
<glyph unicode="&#x4b2;" horiz-adv-x="1454" d="M0 0l504 745l-459 689h401l275 -471l276 471h402l-461 -689l317 -466h199l-14 -603h-297v324h-125l-297 494l-295 -494h-426z" />
<glyph unicode="&#x4b3;" horiz-adv-x="1146" d="M0 0l389 539l-371 501h361l190 -323l193 323h358l-368 -501l237 -330h158l-19 -479h-264v270h-84l-211 340l-211 -340h-358z" />
<glyph unicode="&#x4b4;" horiz-adv-x="1923" d="M27 1155v279h1161v-279h-389v-876h555v1155h338v-1155h202l-14 -603h-297v324h-1122v1155h-434z" />
<glyph unicode="&#x4b5;" horiz-adv-x="1572" d="M27 831v209h942v-209h-287v-622h389v831h311v-831h170l-18 -479h-264v270h-899v831h-344z" />
<glyph unicode="&#x4b6;" horiz-adv-x="1452" d="M98 995v439h338v-347q0 -58 9.5 -98t35 -74.5t77 -51.5t130.5 -17q114 0 236 16v572h338v-1155h303l-15 -603h-297v324h-329v584q-196 -17 -324 -17q-102 0 -181 13t-133.5 39.5t-91.5 62t-58 85.5t-29.5 104t-8.5 124z" />
<glyph unicode="&#x4b7;" horiz-adv-x="1212" d="M82 723v317h311v-303q0 -60 11 -83q29 -64 153 -64q98 0 164 8v442h311v-831h283l-19 -479h-264v270h-311v389q-68 -8 -229 -8q-104 0 -178 16t-118.5 42.5t-70.5 71.5t-34.5 94t-8.5 118z" />
<glyph unicode="&#x4b8;" horiz-adv-x="1505" d="M98 995v439h338v-347q0 -52 7 -91t26 -74.5t57.5 -54.5t96.5 -19v332h204v-332q96 4 179 14v572h337v-1434h-337v588q-118 -15 -179 -15v-282h-204v276q-153 -2 -255.5 22.5t-161.5 80t-83.5 133.5t-24.5 192z" />
<glyph unicode="&#x4b9;" horiz-adv-x="1329" d="M82 723v317h311v-303v-22.5t2.5 -27t7.5 -31.5t16.5 -27t27.5 -24.5t42.5 -12.5t59.5 -2v266h184v-266q84 0 152 8v442h311v-1040h-311v393q-73 -8 -152 -8v-225h-184v225q-120 -3 -205.5 12t-136 41.5t-79 72.5t-37.5 94t-9 118z" />
<glyph unicode="&#x4ba;" horiz-adv-x="1423" d="M162 0v1434h338v-543q184 16 323 16q102 0 181 -13t133.5 -39.5t91.5 -62t58 -85.5t29.5 -104t8.5 -124v-479h-338v387q0 58 -9.5 98t-35 75t-77 52t-130.5 17q-106 0 -235 -17v-612h-338z" />
<glyph unicode="&#x4bb;" horiz-adv-x="1259" d="M125 0v1434h311v-506q128 151 352 151q345 0 345 -426v-653h-312v602q0 37 -2 65.5t-12 69t-28 67.5t-52.5 46.5t-81.5 19.5q-49 0 -86.5 -17.5t-59 -48t-35.5 -61t-19.5 -67.5t-7 -55t-1.5 -35v-586h-311z" />
<glyph unicode="&#x4bc;" horiz-adv-x="1970" d="M0 975q0 183 127 295q46 36 113.5 58.5t136.5 27.5v-262q-36 -3 -60 -27q-30 -30 -30 -82q0 -41 24 -65q27 -29 80 -29h58q42 229 202 389q115 111 244.5 153t290.5 42q57 0 102 -3.5t111 -18t120 -40t113.5 -74t106.5 -116.5q74 -104 109.5 -243t35.5 -278v-73h-1034 q0 -78 24 -165t84 -151q84 -92 216 -92q140 0 215 86q44 46 57 113h409q-24 -107 -88.5 -201t-158.5 -153q-167 -107 -451 -107q-331 0 -520 182q-53 51 -93 117.5t-59.5 122t-31.5 113.5t-14.5 87t-2.5 48h-76q-195 0 -290 121q-70 90 -70 225zM850 891h625 q-11 152 -80 231q-79 90 -221 90q-129 0 -209 -71q-53 -46 -81.5 -114t-33.5 -136z" />
<glyph unicode="&#x4bd;" horiz-adv-x="1566" d="M0 702q0 140 100 224q82 66 199 69v-174q-39 -4 -59 -24q-31 -24 -31 -84q0 -42 24 -66q29 -29 80 -29h58q23 182 159 318q150 143 420 143q55 0 100.5 -6t104 -23t114.5 -57.5t103 -101.5q115 -153 115 -389v-58h-799q-4 -59 20 -118.5t64 -96.5q67 -59 166 -59 q105 0 166 57q26 22 45 74h315q-22 -85 -74 -153.5t-118 -108.5q-129 -78 -344 -78q-269 0 -408 133q-68 65 -107.5 157.5t-45.5 192.5h-84q-153 0 -228 91q-55 70 -55 167zM688 618h475q0 122 -55 183q-56 69 -178 69q-90 0 -152 -53q-81 -74 -90 -199z" />
<glyph unicode="&#x4be;" horiz-adv-x="1970" d="M0 975q0 183 127 295q46 36 113.5 58.5t136.5 27.5v-262q-36 -3 -60 -27q-30 -30 -30 -82q0 -41 24 -65q27 -29 80 -29h58q42 229 202 389q115 111 244.5 153t290.5 42q57 0 102 -3.5t111 -18t120 -40t113.5 -74t106.5 -116.5q74 -104 109.5 -243t35.5 -278v-73h-1034 q0 -78 24 -165t84 -151q84 -92 216 -92q140 0 215 86q44 46 57 113h409q-24 -107 -88.5 -201t-158.5 -153q-70 -46 -169 -73t-202 -32q-102 -106 -102 -215q0 -62 27.5 -102.5t84.5 -40.5q33 0 56.5 15t34 37.5t14.5 41t4 33.5h182q-8 -125 -91.5 -203t-211.5 -78 q-141 0 -231.5 68.5t-90.5 183.5q0 145 127 264q-122 10 -226.5 58t-176.5 118q-92 87 -144 220t-57 268h-76q-195 0 -290 121q-70 90 -70 225zM850 891h625q-11 152 -80 231q-79 90 -221 90q-129 0 -209 -71q-53 -46 -81.5 -114t-33.5 -136z" />
<glyph unicode="&#x4bf;" horiz-adv-x="1566" d="M0 702q0 140 100 224q82 66 199 69v-174q-39 -4 -59 -24q-31 -24 -31 -84q0 -42 24 -66q29 -29 80 -29h58q23 182 159 318q150 143 420 143q55 0 100.5 -6t104 -23t114.5 -57.5t103 -101.5q115 -153 115 -389v-58h-799q-4 -59 20 -118.5t64 -96.5q67 -59 166 -59 q105 0 166 57q26 22 45 74h315q-19 -82 -73 -152t-119 -110q-110 -65 -268 -76q-105 -105 -105 -217q0 -62 28 -102.5t85 -40.5q33 0 56 15t33.5 37.5t14.5 41t4 33.5h183q-4 -52 -23 -99.5t-54.5 -89.5t-96 -67t-138.5 -25q-147 0 -230 75t-83 177q0 137 131 268 q-172 17 -289 125q-68 65 -107.5 157.5t-45.5 192.5h-84q-153 0 -228 91q-55 70 -55 167zM688 618h475v21q0 14 -2 20q-11 90 -53 142q-56 69 -178 69q-90 0 -152 -53q-81 -74 -90 -199z" />
<glyph unicode="&#x4c0;" horiz-adv-x="569" d="M125 0v1434h311v-1434h-311z" />
<glyph unicode="&#x4c1;" horiz-adv-x="2019" d="M-18 0l577 768l-561 666h399l439 -584h6v584h338v-584h6l438 584h399l-561 -666l578 -768h-410l-444 649h-6v-649h-338v649h-6l-445 -649h-409zM604 1786h227q0 -59 44 -98t135 -39q90 0 133 38.5t45 98.5h227q0 -22 -6 -43q-8 -44 -33 -82q-81 -132 -278 -152 q-44 -6 -88 -6q-45 0 -88 6q-62 7 -111 23t-98 53q-35 26 -68 76q-28 47 -35 82q-6 21 -6 43z" />
<glyph unicode="&#x4c2;" horiz-adv-x="1597" d="M-20 0l421 547l-395 493h342l291 -424h4v424h311v-424h4l291 424h342l-395 -493l422 -547h-361l-299 457h-4v-457h-311v457h-4l-299 -457h-360zM393 1434h228q0 -37 16 -64.5t37 -41t49.5 -21.5t44.5 -9.5t31 -1.5q72 0 126 34t50 104h229q-5 -37 -8 -43q-12 -45 -33 -80 q-83 -136 -278 -154q-43 -6 -86 -6q-5 0 -41.5 2.5t-49.5 4t-47 7t-55 13t-50.5 22t-55.5 33.5q-45 38 -68 78q-27 48 -33 80q-6 21 -6 43z" />
<glyph unicode="&#x4c3;" horiz-adv-x="1486" d="M154 0v1434h338v-603h4l491 603h397l-575 -656l487 -624h21q139 0 221 -72.5t82 -214.5q0 -82 -29 -143.5t-69.5 -93.5t-96.5 -51.5t-98 -24.5t-86 -5v154q25 0 50 7t50.5 23.5t41.5 50t16 79.5q0 137 -125 137h-270l-508 700h-4v-700h-338z" />
<glyph unicode="&#x4c4;" horiz-adv-x="1230" d="M125 0v1040h311v-417h6l334 417h346l-428 -487l332 -410h21q133 0 209.5 -67.5t76.5 -198.5q0 -72 -22.5 -127.5t-57.5 -89t-84 -54.5t-97 -28.5t-101 -7.5v143q64 0 110.5 39.5t46.5 120.5q0 42 -12.5 70t-35 39t-39 14.5t-37.5 3.5h-226l-336 455h-6v-455h-311z" />
<glyph unicode="&#x4c7;" horiz-adv-x="1560" d="M154 0v1434h338v-539h520v539h338v-1280h20q139 0 221 -72.5t82 -214.5q0 -82 -29 -143.5t-69.5 -93.5t-96.5 -51.5t-98 -24.5t-86 -5v154q25 0 50 7t50.5 23.5t41.5 50t16 79.5q0 137 -125 137h-315v616h-520v-616h-338z" />
<glyph unicode="&#x4c8;" horiz-adv-x="1327" d="M125 0v1040h311v-391h375v391h311v-897h21q133 0 210 -67.5t77 -198.5q0 -72 -22.5 -127.5t-57.5 -89t-84.5 -54.5t-97.5 -28.5t-101 -7.5v143q64 0 111 39.5t47 120.5q0 42 -13 70t-35.5 39t-39 14.5t-37.5 3.5h-289v440h-375v-440h-311z" />
<glyph unicode="&#x4cb;" horiz-adv-x="1423" d="M98 995v439h338v-347q0 -58 9.5 -98t35 -74.5t77 -51.5t130.5 -17q114 0 236 16v572h338v-1434h-230v-324h-297l-14 603h203v305q-196 -17 -324 -17q-102 0 -181 13t-133.5 39.5t-91.5 62t-58 85.5t-29.5 104t-8.5 124z" />
<glyph unicode="&#x4cc;" horiz-adv-x="1165" d="M82 723v317h311v-303q0 -60 11 -83q29 -64 153 -64q98 0 164 8v442h311v-1040h-198v-270h-265l-18 479h170v180q-68 -8 -229 -8q-104 0 -178 16t-118.5 42.5t-70.5 71.5t-34.5 94t-8.5 118z" />
<glyph unicode="&#x4cd;" horiz-adv-x="1998" d="M154 0v1434h475l342 -985l342 985h475v-1280h20q126 0 207 -62q96 -80 96 -229q0 -179 -133 -258q-102 -56 -245 -56v154q25 0 49 7t50 23.5t42 51t16 82.5q0 133 -125 133h-315v1024h-6l-359 -1024h-229l-358 1024h-6v-1024h-338z" />
<glyph unicode="&#x4ce;" horiz-adv-x="1724" d="M125 0v1040h414l282 -731h2l283 731h414v-897h20q126 0 197 -57q90 -70 90 -211q0 -176 -127 -252q-89 -53 -236 -53v143q64 0 111 39.5t47 120.5q0 42 -13 70t-35.5 39t-39 14.5t-37.5 3.5h-289v664l6 53h-6l-282 -717h-207l-283 717h-6l6 -53v-664h-311z" />
<glyph unicode="&#x4d0;" horiz-adv-x="1378" d="M-18 0l536 1434h342l539 -1434h-359l-92 268h-520l-90 -268h-356zM283 1786h227q0 -59 43.5 -98t134.5 -39q90 0 133 38.5t45 98.5h228q0 -18 -7 -43q-9 -46 -32 -82q-26 -42 -65 -73t-81.5 -46.5t-72.5 -22.5t-60 -10q-43 -6 -88 -6q-44 0 -88 6q-62 7 -111 23t-98 53 q-34 24 -67 76q-28 47 -35 82q-6 21 -6 43zM502 512h372l-184 547z" />
<glyph unicode="&#x4d1;" horiz-adv-x="1243" d="M96 262q0 50 12 91.5t31.5 71.5t50 55t61.5 41t73.5 29.5t77.5 21.5t81 16q40 6 88.5 11.5t74.5 8.5t56 8.5t44.5 11t28.5 16t19.5 25.5t6.5 36v28q-6 137 -168 137q-22 0 -42 -2t-49 -12t-49.5 -26.5t-35.5 -48.5t-15 -76h-297q3 74 26.5 134t57 98t80.5 66t89 42 t93 22.5t81 10t63 1.5q97 0 174 -16t126 -39.5t84.5 -60.5t53 -68.5t27 -75.5t11 -69t1.5 -60l-6 -475q-2 -98 9 -142.5t52 -54.5v-18h-327l-27 102h-6q-58 -73 -150 -107t-198 -34q-94 0 -164.5 23.5t-107 56.5t-58.5 78t-27.5 77t-5.5 66zM215 1434h227q0 -37 16 -64.5 t37.5 -41t49.5 -21.5t44.5 -9.5t31.5 -1.5q72 0 126 34t50 104h229q-5 -37 -8 -43q-12 -45 -33 -80q-83 -136 -278 -154q-44 -6 -86 -6q-5 0 -41.5 2.5t-49.5 4t-47 7t-55 13t-50.5 22t-55.5 33.5q-45 38 -68 78q-27 48 -33 80q-6 21 -6 43zM416 291q0 -35 16 -60t42 -37.5 t51 -18t50 -5.5t53 6.5t60 25t57 46.5t41.5 75t16.5 107v66q-28 -13 -44.5 -20t-34 -12t-28.5 -7t-41 -7t-57 -10q-26 -4 -45 -8t-47 -15t-45.5 -26t-31 -41t-13.5 -59z" />
<glyph unicode="&#x4d2;" horiz-adv-x="1378" d="M-18 0l536 1434h342l539 -1434h-359l-92 268h-520l-90 -268h-356zM285 1569v217h290v-217h-290zM502 512h372l-184 547zM793 1569v217h290v-217h-290z" />
<glyph unicode="&#x4d3;" horiz-adv-x="1243" d="M96 262q0 50 12 91.5t31.5 71.5t50 55t61.5 41t73.5 29.5t77.5 21.5t81 16q40 6 88.5 11.5t74.5 8.5t56 8.5t44.5 11t28.5 16t19.5 25.5t6.5 36v28q-6 137 -168 137q-22 0 -42 -2t-49 -12t-49.5 -26.5t-35.5 -48.5t-15 -76h-297q3 74 26.5 134t57 98t80.5 66t89 42 t93 22.5t81 10t63 1.5q97 0 174 -16t126 -39.5t84.5 -60.5t53 -68.5t27 -75.5t11 -69t1.5 -60l-6 -475q-2 -98 9 -142.5t52 -54.5v-18h-327l-27 102h-6q-58 -73 -150 -107t-198 -34q-94 0 -164.5 23.5t-107 56.5t-58.5 78t-27.5 77t-5.5 66zM170 1190v244h311v-244h-311z M416 291q0 -35 16 -60t42 -37.5t51 -18t50 -5.5t53 6.5t60 25t57 46.5t41.5 75t16.5 107v66q-28 -13 -44.5 -20t-34 -12t-28.5 -7t-41 -7t-57 -10q-26 -4 -45 -8t-47 -15t-45.5 -26t-31 -41t-13.5 -59zM748 1190v244h311v-244h-311z" />
<glyph unicode="&#x4d4;" horiz-adv-x="2199" d="M-18 0l800 1434h1350v-279h-741v-291h645v-264h-645v-321h759v-279h-1097v295h-508l-156 -295h-407zM692 573h361v582h-54z" />
<glyph unicode="&#x4d5;" horiz-adv-x="1961" d="M96 276q0 77 33 134.5t70 88t114 53.5t114 29t121 16q8 1 13 2t12 1.5t13 1.5q102 11 148 24.5t57.5 29t11.5 49.5v30q0 12 -1 22.5t-10.5 33t-26.5 38.5t-53.5 28.5t-86.5 12.5q-205 0 -205 -165h-285q7 91 39 159t79 108t113 65t130.5 33.5t142.5 8.5q39 0 67.5 -2 t70.5 -11t74.5 -25.5t66.5 -47.5t59 -75q34 53 86.5 88.5t109 49.5t91.5 18.5t67 4.5q255 0 403 -150t148 -427v-45h-797q0 -36 6 -72t23 -76t44 -70t72.5 -49.5t104.5 -19.5q31 0 60.5 6t60 19.5t54.5 40.5t36 65h314q-19 -76 -58 -135.5t-88.5 -97.5t-111.5 -62.5 t-123.5 -34.5t-128.5 -10q-146 0 -238.5 37.5t-159.5 132.5q-52 -80 -144.5 -125t-254.5 -45q-127 0 -219 25.5t-142.5 71t-73 99.5t-22.5 119zM420 291q0 -121 166 -121q26 0 52.5 5t58 20t55 38.5t39.5 63t16 90.5v109q-28 -13 -44.5 -20t-34.5 -12t-28.5 -7t-41 -7 t-58.5 -10l-16 -3q-16 -3 -21 -4.5t-22 -6t-25 -8.5t-23 -11t-23.5 -14t-19.5 -18t-16.5 -23t-9.5 -27.5t-4 -33.5zM1085 618h474q-2 68 -19.5 117.5t-41 74.5t-56 39.5t-54.5 17.5t-47 3q-59 0 -105.5 -20.5t-72.5 -49.5t-44.5 -66.5t-25 -64.5t-8.5 -51z" />
<glyph unicode="&#x4d6;" horiz-adv-x="1355" d="M154 0v1434h1132v-279h-794v-291h700v-264h-700v-321h815v-279h-1153zM272 1786h228q0 -59 43.5 -98t134.5 -39q90 0 133 38.5t45 98.5h227q0 -22 -6 -43q-8 -44 -33 -82q-81 -132 -278 -152q-44 -6 -88 -6t-88 6q-62 7 -111 23t-98 53q-35 26 -68 76q-26 44 -34 82 q-7 25 -7 43z" />
<glyph unicode="&#x4d7;" horiz-adv-x="1277" d="M76 522q0 132 43 238t121 175.5t184.5 106.5t234.5 37q103 0 187 -25t137.5 -64t94 -93.5t61.5 -106t34 -110t17 -97t6 -74.5v-7l2 -58h-799q0 -43 11.5 -86t37.5 -87.5t78 -72.5t123 -28q74 0 133 33t78 98h316q-95 -340 -541 -340q-28 0 -55.5 1.5t-70 8t-80.5 17.5 t-83 32t-82 49t-73 71t-60.5 96.5t-39.5 126.5t-15 159zM233 1434h228q0 -37 16 -64.5t37 -41t49.5 -21.5t44.5 -9.5t31 -1.5q72 0 126 34t50 104h229q-5 -37 -8 -43q-12 -48 -32 -80q-83 -136 -279 -154q-43 -6 -86 -6q-5 0 -41.5 2.5t-49.5 4t-47 7t-55 13t-50.5 22 t-55.5 33.5q-45 38 -68 78q-25 45 -32 80q-7 24 -7 43zM399 618h475q-2 64 -18.5 111.5t-39 73.5t-53.5 42t-56 20.5t-52 4.5q-66 0 -116.5 -24t-79 -63t-43.5 -80.5t-17 -84.5z" />
<glyph unicode="&#x4d8;" horiz-adv-x="1622" d="M86 731v74h1034q0 46 -8 96t-31 107t-57.5 101t-93.5 73.5t-133 29.5q-108 0 -181.5 -55t-91.5 -143h-409q9 42 24 82.5t42.5 87.5t64 87.5t91.5 78.5t121.5 65t157.5 43.5t197 16.5q147 0 265 -36.5t191.5 -90t127.5 -132.5t80 -145.5t40.5 -149t16.5 -122t2 -84.5 q0 -179 -57 -323t-158.5 -238t-238.5 -144.5t-298 -50.5q-106 0 -197 21t-157 56t-119.5 85.5t-88.5 102.5t-61.5 114.5t-40 115.5t-22 110.5t-10.5 94t-2 72.5zM496 543q2 -45 10.5 -86.5t29.5 -85.5t52.5 -76.5t83 -53t116.5 -20.5q87 0 152.5 31t102 82t55 103t22.5 106 h-624z" />
<glyph unicode="&#x4d9;" horiz-adv-x="1267" d="M76 537v47h794q5 124 -61 211.5t-186 87.5q-55 0 -96.5 -14.5t-64.5 -38.5t-34.5 -46.5t-15.5 -46.5h-316q94 342 539 342q273 0 415 -148.5t142 -412.5q0 -176 -75.5 -302.5t-205 -188.5t-299.5 -62q-30 0 -59.5 2t-86 14.5t-104.5 33.5t-103 64t-93.5 101.5t-64 150.5 t-25.5 206zM395 410q12 -248 226 -248q57 0 101.5 18.5t69.5 44t43 62.5t24.5 64.5t10.5 58.5h-475z" />
<glyph unicode="&#x4da;" horiz-adv-x="1622" d="M86 731v74h1034q0 46 -8 96t-31 107t-57.5 101t-93.5 73.5t-133 29.5q-108 0 -181.5 -55t-91.5 -143h-409q9 42 24 82.5t42.5 87.5t64 87.5t91.5 78.5t121.5 65t157.5 43.5t197 16.5q147 0 265 -36.5t191.5 -90t127.5 -132.5t80 -145.5t40.5 -149t16.5 -122t2 -84.5 q0 -179 -57 -323t-158.5 -238t-238.5 -144.5t-298 -50.5q-106 0 -197 21t-157 56t-119.5 85.5t-88.5 102.5t-61.5 114.5t-40 115.5t-22 110.5t-10.5 94t-2 72.5zM408 1569v217h290v-217h-290zM496 543q2 -45 10.5 -86.5t29.5 -85.5t52.5 -76.5t83 -53t116.5 -20.5 q87 0 152.5 31t102 82t55 103t22.5 106h-624zM915 1569v217h291v-217h-291z" />
<glyph unicode="&#x4db;" horiz-adv-x="1267" d="M76 537v47h794q5 124 -61 211.5t-186 87.5q-55 0 -96.5 -14.5t-64.5 -38.5t-34.5 -46.5t-15.5 -46.5h-316q94 342 539 342q273 0 415 -148.5t142 -412.5q0 -176 -75.5 -302.5t-205 -188.5t-299.5 -62q-30 0 -59.5 2t-86 14.5t-104.5 33.5t-103 64t-93.5 101.5t-64 150.5 t-25.5 206zM182 1190v244h312v-244h-312zM395 410q12 -248 226 -248q57 0 101.5 18.5t69.5 44t43 62.5t24.5 64.5t10.5 58.5h-475zM760 1190v244h311v-244h-311z" />
<glyph unicode="&#x4dc;" horiz-adv-x="2019" d="M-18 0l577 768l-561 666h399l439 -584h6v584h338v-584h6l438 584h399l-561 -666l578 -768h-410l-444 649h-6v-649h-338v649h-6l-445 -649h-409zM606 1569v217h291v-217h-291zM1114 1569v217h291v-217h-291z" />
<glyph unicode="&#x4dd;" horiz-adv-x="1597" d="M-20 0l421 547l-395 493h342l291 -424h4v424h311v-424h4l291 424h342l-395 -493l422 -547h-361l-299 457h-4v-457h-311v457h-4l-299 -457h-360zM348 1190v244h311v-244h-311zM926 1190v244h311v-244h-311z" />
<glyph unicode="&#x4de;" horiz-adv-x="1497" d="M72 494h327q10 -256 338 -256q85 0 146 17.5t90.5 47t42 59.5t12.5 64q0 174 -246 174h-202v264h168q235 0 235 160q0 41 -16.5 73t-46.5 49.5t-57.5 28.5t-65.5 15t-54 5t-38 1q-26 0 -45 -1.5t-53 -7.5t-58.5 -21t-49.5 -38.5t-40 -64.5t-17 -94h-329q8 142 55 241.5 t131 157t191.5 82.5t250.5 25q100 0 187 -12.5t165.5 -42.5t134 -75.5t88 -115.5t32.5 -158q0 -80 -27.5 -141.5t-72 -96t-87 -52.5t-86.5 -25v-4q160 -32 239 -117t79 -246q0 -430 -666 -430q-69 0 -128 5t-125.5 19.5t-120.5 38.5t-105.5 65t-87.5 96t-59.5 134t-28.5 177 zM344 1569v217h291v-217h-291zM852 1569v217h291v-217h-291z" />
<glyph unicode="&#x4df;" horiz-adv-x="1165" d="M45 348h295q14 -178 217 -178q41 0 76.5 6.5t68 20.5t51.5 41.5t19 64.5q0 135 -186 135h-121v195h129q71 0 114.5 26.5t43.5 83.5q0 46 -30.5 76t-73 40.5t-97.5 10.5q-21 0 -40.5 -2.5t-46.5 -12t-47 -26t-35 -48t-17 -74.5h-287q-1 70 17 127.5t48 95.5t74 66t87 43.5 t95.5 25t92 12t83.5 2.5q45 0 82 -1.5t91 -8.5t95.5 -18.5t86 -34.5t74 -53.5t48.5 -78t19 -106.5q0 -91 -50 -145.5t-151 -81.5v-6q222 -43 222 -256q0 -91 -37.5 -156t-109 -102t-163.5 -53.5t-213 -16.5q-113 0 -203 20.5t-162.5 64.5t-113.5 120.5t-45 181.5zM131 1190 v244h311v-244h-311zM709 1190v244h311v-244h-311z" />
<glyph unicode="&#x4e0;" horiz-adv-x="1413" d="M78 465h342q0 -30 5.5 -57t24.5 -59.5t49.5 -56t85 -39t126.5 -15.5q24 0 46.5 2t62.5 14.5t68.5 33.5t50.5 65.5t22 105.5q0 39 -10 73t-34 68t-73.5 54t-120.5 20q-67 0 -137 -21l-144 205l398 297h-688v279h1114v-260l-357 -263q80 0 150 -26.5t126.5 -78t89 -137 t32.5 -194.5q0 -102 -28 -184.5t-70.5 -135t-103.5 -91.5t-115 -58.5t-118 -31t-100.5 -13.5t-73.5 -2q-121 0 -219.5 23.5t-161.5 59t-110 86t-71 96.5t-38 98.5t-17 83t-3 59.5z" />
<glyph unicode="&#x4e1;" horiz-adv-x="1146" d="M-8 -53h303q11 -57 51 -97q63 -49 152 -49q112 0 174 62q73 66 73 188q0 132 -71 197q-54 51 -162 51q-72 0 -145 -29l-95 156l387 405h-569v209h918v-206l-318 -326q141 -10 240 -92q139 -113 139 -336q0 -219 -147 -354q-153 -134 -424 -134q-55 0 -91.5 2t-87 11.5 t-92.5 27.5q-61 25 -107 63.5t-71.5 83t-39 85t-17.5 82.5z" />
<glyph unicode="&#x4e2;" horiz-adv-x="1562" d="M154 0v1434h338v-926l571 926h338v-1434h-338v936l-571 -936h-338zM387 1569v176h787v-176h-394h-393z" />
<glyph unicode="&#x4e3;" horiz-adv-x="1325" d="M125 0v1040h311v-675l426 675h330v-1040h-311v676l-424 -676h-332zM268 1229v176h787v-176h-393h-394z" />
<glyph unicode="&#x4e4;" horiz-adv-x="1562" d="M154 0v1434h338v-926l571 926h338v-1434h-338v936l-571 -936h-338zM377 1569v217h291v-217h-291zM885 1569v217h291v-217h-291z" />
<glyph unicode="&#x4e5;" horiz-adv-x="1325" d="M125 0v1040h311v-675l426 675h330v-1040h-311v676l-424 -676h-332zM211 1190v244h311v-244h-311zM788 1190v244h312v-244h-312z" />
<glyph unicode="&#x4e6;" horiz-adv-x="1628" d="M86 717q0 107 20.5 207.5t72.5 203t132 177.5t208.5 122.5t291.5 47.5q181 0 321 -57t227.5 -159.5t132 -239.5t44.5 -302t-44.5 -302t-132 -239.5t-227.5 -159.5t-321 -57q-163 0 -291.5 47.5t-208.5 122.5t-132 177.5t-72.5 203t-20.5 207.5zM410 1569v217h290v-217 h-290zM453 717q0 -135 29 -232t81 -149t112.5 -75t135.5 -23q71 0 128 21t94 52.5t64 77.5t41 88t22 93t9.5 82t1.5 65q0 36 -1.5 68t-9.5 83.5t-22 92.5t-41 87t-64 76.5t-94 51t-128 20.5q-358 0 -358 -479zM918 1569v217h290v-217h-290z" />
<glyph unicode="&#x4e7;" horiz-adv-x="1294" d="M76 522q0 119 31.5 215t85 159t127.5 105t154.5 60t170.5 18q124 0 226.5 -34.5t179.5 -101.5t120 -174.5t43 -246.5q0 -140 -43 -248.5t-120.5 -176t-180 -102t-225.5 -34.5t-225.5 34.5t-180 102t-120.5 176t-43 248.5zM197 1190v244h311v-244h-311zM399 522 q0 -352 246 -352t246 352q0 68 -10 123.5t-25 91t-38 61.5t-44 39.5t-47.5 21.5t-43.5 9.5t-38 1.5q-246 0 -246 -348zM774 1190v244h311v-244h-311z" />
<glyph unicode="&#x4e8;" horiz-adv-x="1617" d="M82 717q0 125 24 230.5t64.5 182t97.5 137t120.5 99t136.5 64t142 35.5t140 10t139 -10t141 -35t137 -63.5t121 -99t98 -137t65 -182.5t24 -231q0 -107 -20.5 -207.5t-72.5 -203t-132 -177.5t-208.5 -122.5t-291.5 -47.5q-164 0 -293 47.5t-208.5 123t-131.5 178 t-72 202.5t-20 207zM451 588q6 -68 29.5 -128t65 -111t109 -81t152.5 -30q80 0 143 25t100 61.5t62 86.5t35.5 92t13.5 85h-710zM453 866h704q-3 41 -15.5 82.5t-39.5 87t-65 80.5t-97.5 57.5t-132.5 22.5q-81 0 -145.5 -28.5t-100.5 -66.5t-61.5 -89.5t-34 -83.5t-12.5 -62 z" />
<glyph unicode="&#x4e9;" horiz-adv-x="1286" d="M72 516q0 141 43.5 250t121.5 176.5t180 102t224 34.5q89 0 169 -18t154 -60t128 -105.5t86 -161t32 -218.5q0 -119 -31.5 -214t-84.5 -158t-126.5 -105t-154.5 -60t-172 -18q-125 0 -227.5 34t-179.5 101.5t-119.5 174.5t-42.5 245zM397 440q0 -69 25.5 -128.5 t82.5 -100.5t136 -41q115 0 179.5 81t64.5 189h-488zM399 625h482q-2 18 -6 35.5t-13.5 49t-27 57t-42 50.5t-64 39t-87.5 14q-109 0 -173 -72.5t-69 -172.5z" />
<glyph unicode="&#x4ea;" horiz-adv-x="1617" d="M82 717q0 125 24 230.5t64.5 182t97.5 137t120.5 99t136.5 64t142 35.5t140 10t139 -10t141 -35t137 -63.5t121 -99t98 -137t65 -182.5t24 -231q0 -107 -20.5 -207.5t-72.5 -203t-132 -177.5t-208.5 -122.5t-291.5 -47.5q-164 0 -293 47.5t-208.5 123t-131.5 178 t-72 202.5t-20 207zM406 1569v217h290v-217h-290zM451 588q6 -68 29.5 -128t65 -111t109 -81t152.5 -30q80 0 143 25t100 61.5t62 86.5t35.5 92t13.5 85h-710zM453 866h704q-3 41 -15.5 82.5t-39.5 87t-65 80.5t-97.5 57.5t-132.5 22.5q-81 0 -145.5 -28.5t-100.5 -66.5 t-61.5 -89.5t-34 -83.5t-12.5 -62zM913 1569v217h291v-217h-291z" />
<glyph unicode="&#x4eb;" horiz-adv-x="1286" d="M72 516q0 141 43.5 250t121.5 176.5t180 102t224 34.5q89 0 169 -18t154 -60t128 -105.5t86 -161t32 -218.5q0 -119 -31.5 -214t-84.5 -158t-126.5 -105t-154.5 -60t-172 -18q-125 0 -227.5 34t-179.5 101.5t-119.5 174.5t-42.5 245zM193 1190v244h311v-244h-311z M397 440q0 -69 25.5 -128.5t82.5 -100.5t136 -41q115 0 179.5 81t64.5 189h-488zM399 625h482q-2 18 -6 35.5t-13.5 49t-27 57t-42 50.5t-64 39t-87.5 14q-109 0 -173 -72.5t-69 -172.5zM770 1190v244h311v-244h-311z" />
<glyph unicode="&#x4ee;" horiz-adv-x="1318" d="M8 1434h404l313 -701l248 701h366l-467 -1141q-35 -86 -77.5 -146.5t-83 -94t-92.5 -52t-93 -23t-98 -4.5q-101 0 -215 27v279q82 -21 145 -21q145 0 181 137zM266 1569v176h787v-176h-394h-393z" />
<glyph unicode="&#x4ef;" horiz-adv-x="1142" d="M8 1040h375l242 -678l186 678h332l-363 -1095q-39 -124 -67 -176q-92 -166 -299 -166q-120 0 -219 18v209q31 -14 100 -14q118 0 151 145l15 51zM178 1229v176h787v-176h-394h-393z" />
<glyph unicode="&#x4f0;" horiz-adv-x="1318" d="M8 1434h404l313 -701l248 701h366l-467 -1141q-35 -86 -77.5 -146.5t-83 -94t-92.5 -52t-93 -23t-98 -4.5q-101 0 -215 27v279q82 -21 145 -21q145 0 181 137zM256 1569v217h291v-217h-291zM764 1569v217h291v-217h-291z" />
<glyph unicode="&#x4f1;" horiz-adv-x="1142" d="M8 1040h375l242 -678l186 678h332l-363 -1095q-39 -124 -67 -176q-92 -166 -299 -166q-120 0 -219 18v209q31 -14 100 -14q118 0 151 145l15 51zM121 1190v244h311v-244h-311zM698 1190v244h312v-244h-312z" />
<glyph unicode="&#x4f2;" horiz-adv-x="1318" d="M8 1434h404l313 -701l248 701h366l-467 -1141q-35 -86 -77.5 -146.5t-83 -94t-92.5 -52t-93 -23t-98 -4.5q-101 0 -215 27v279q82 -21 145 -21q145 0 181 137zM332 1569l141 270h328l-217 -270h-252zM803 1569l141 270h328l-217 -270h-252z" />
<glyph unicode="&#x4f3;" horiz-adv-x="1142" d="M8 1040h375l242 -678l186 678h332l-363 -1095q-39 -124 -67 -176q-92 -166 -299 -166q-120 0 -219 18v209q31 -14 100 -14q118 0 151 145l15 51zM113 1163l141 271h328l-217 -271h-252zM555 1163l141 271h328l-217 -271h-252z" />
<glyph unicode="&#x4f4;" horiz-adv-x="1423" d="M98 995v439h338v-347q0 -58 9.5 -98t35 -74.5t77 -51.5t130.5 -17q114 0 236 16v572h338v-1434h-338v584q-196 -17 -324 -17q-102 0 -181 13t-133.5 39.5t-91.5 62t-58 85.5t-29.5 104t-8.5 124zM307 1569v217h291v-217h-291zM815 1569v217h291v-217h-291z" />
<glyph unicode="&#x4f5;" horiz-adv-x="1165" d="M82 723v317h311v-303q0 -60 11 -83q29 -64 153 -64q98 0 164 8v442h311v-1040h-311v389q-68 -8 -229 -8q-104 0 -178 16t-118.5 42.5t-70.5 71.5t-34.5 94t-8.5 118zM131 1190v244h311v-244h-311zM709 1190v244h311v-244h-311z" />
<glyph unicode="&#x4f8;" horiz-adv-x="1970" d="M154 0v1434h338v-521h356q121 0 213.5 -28.5t148.5 -73.5t91 -108.5t48 -126t13 -132.5q0 -444 -516 -444h-692zM492 279h286q108 0 163.5 41.5t55.5 136.5q0 99 -58.5 138.5t-170.5 39.5h-276v-356zM582 1569v217h290v-217h-290zM1090 1569v217h290v-217h-290zM1470 0 v1434h338v-1434h-338z" />
<glyph unicode="&#x4f9;" horiz-adv-x="1638" d="M125 0v1040h311v-368h197q154 0 244 -34q204 -78 204 -319q0 -83 -26 -144t-63.5 -93.5t-92.5 -52t-99 -24.5t-98 -5h-577zM369 1190v244h311v-244h-311zM436 209h142q180 0 180 121q0 133 -189 133h-133v-254zM946 1190v244h311v-244h-311zM1194 0v1040h311v-1040h-311z " />
<glyph unicode="&#x2000;" horiz-adv-x="987" />
<glyph unicode="&#x2001;" horiz-adv-x="1974" />
<glyph unicode="&#x2002;" horiz-adv-x="987" />
<glyph unicode="&#x2003;" horiz-adv-x="1974" />
<glyph unicode="&#x2004;" horiz-adv-x="658" />
<glyph unicode="&#x2005;" horiz-adv-x="493" />
<glyph unicode="&#x2006;" horiz-adv-x="329" />
<glyph unicode="&#x2007;" horiz-adv-x="329" />
<glyph unicode="&#x2008;" horiz-adv-x="246" />
<glyph unicode="&#x2009;" horiz-adv-x="394" />
<glyph unicode="&#x200a;" horiz-adv-x="109" />
<glyph unicode="&#x2010;" horiz-adv-x="925" d="M162 420v256h592v-256h-592z" />
<glyph unicode="&#x2011;" horiz-adv-x="925" d="M162 420v256h592v-256h-592z" />
<glyph unicode="&#x2012;" horiz-adv-x="925" d="M162 420v256h592v-256h-592z" />
<glyph unicode="&#x2013;" horiz-adv-x="1382" d="M109 461v174h1159v-174h-1159z" />
<glyph unicode="&#x2014;" horiz-adv-x="1845" d="M109 461v174h1622v-174h-1622z" />
<glyph unicode="&#x2018;" horiz-adv-x="784" d="M217 786v324q0 30 2 57t10.5 64t22.5 67.5t39.5 62.5t60 54.5t87 38.5t116.5 19v-162q-72 0 -124 -50t-52 -141v-10h176v-324h-338z" />
<glyph unicode="&#x2019;" horiz-adv-x="784" d="M217 748v161q72 0 124 49t52 140v12h-176v324h338v-324v-5q0 -27 -0.5 -45t-7 -57t-18.5 -66.5t-37 -63.5t-59.5 -59.5t-90 -42t-125.5 -23.5z" />
<glyph unicode="&#x201a;" horiz-adv-x="784" d="M217 0v324h338v-324q0 -26 -1.5 -49t-9 -61.5t-20.5 -69.5t-38.5 -65.5t-60 -58.5t-88 -40.5t-120.5 -17.5v161q21 0 42.5 4.5t46.5 18t43.5 33.5t31 54.5t12.5 78.5v12h-176z" />
<glyph unicode="&#x201c;" horiz-adv-x="1146" d="M164 786v324q0 28 2 52t9.5 61t21 67t39 63t60 56.5t87.5 41t119 22.5v-162q-72 0 -124 -49.5t-52 -141.5v-10h176v-324h-338zM637 786v324q0 43 5.5 82.5t26.5 91t55.5 89.5t99.5 66.5t151 33.5v-162q-29 0 -56.5 -8.5t-55.5 -28.5t-45 -59.5t-17 -94.5v-10h174v-324 h-338z" />
<glyph unicode="&#x201d;" horiz-adv-x="1146" d="M164 748v161q72 0 124 49t52 140v12h-176v324h338v-324q0 -33 -2 -60t-10 -64.5t-21.5 -67t-39 -61t-60 -53.5t-87 -37.5t-118.5 -18.5zM637 748v161q72 0 124 49t52 140v12h-176v324h338v-324v-8q0 -27 -0.5 -45.5t-7 -57t-18 -66t-36.5 -62.5t-60 -58.5t-90.5 -41.5 t-125.5 -23z" />
<glyph unicode="&#x201e;" horiz-adv-x="1146" d="M164 0v324h338v-324q0 -29 -2 -55t-10 -64t-21 -68.5t-39 -64t-60.5 -56t-87.5 -38t-118 -16.5v161q73 0 124.5 48.5t51.5 140.5v12h-176zM637 0v324h338v-324v-35t-6 -54.5t-17 -72t-36 -70.5t-59.5 -66.5t-91.5 -44.5t-128 -19v161q73 0 124.5 48.5t51.5 140.5v12h-176 z" />
<glyph unicode="&#x2026;" horiz-adv-x="2324" d="M217 0v324h338v-324h-338zM987 0v324h338v-324h-338zM1757 0v324h338v-324h-338z" />
<glyph unicode="&#x202f;" horiz-adv-x="394" />
<glyph unicode="&#x2039;" horiz-adv-x="575" d="M117 401v291l307 281v-283l-168 -143l168 -144v-282z" />
<glyph unicode="&#x203a;" horiz-adv-x="575" d="M152 121v282l167 144l-167 143v283l307 -281v-291z" />
<glyph unicode="&#x205f;" horiz-adv-x="493" />
<glyph unicode="&#x20ac;" d="M20 481l70 162h84v143h-154l70 162h107q19 119 72 222.5t130 168.5q160 136 424 136q167 0 293 -52q71 -32 146 -88l-121 -237q-61 55 -133 90q-81 37 -185 37q-136 0 -221 -74q-84 -78 -108 -203h577l-70 -162h-530v-143h469l-70 -162h-378q11 -116 73 -184 q84 -88 221 -88q95 0 152 47q40 31 53 82h299q-31 -167 -143 -262q-134 -117 -371 -117q-238 0 -395 135q-80 69 -130.5 168.5t-60.5 218.5h-170z" />
<glyph unicode="&#x2122;" horiz-adv-x="1927" d="M41 1266v168h676v-168h-223v-549h-230v549h-223zM874 717v717h310l143 -439l10 -75h13l8 75l145 439h309v-717h-227v393l14 94h-14l-166 -487h-151l-164 487h-17l17 -94v-393h-230z" />
<glyph unicode="&#xe000;" horiz-adv-x="1044" d="M0 0v1044h1044v-1044h-1044z" />
</font>
</defs>
</svg>
